<?xml version="1.0" encoding="UTF-8"?>
<svg width="22px" height="22px" viewBox="0 0 22 22" version="1.1" xmlns="http://www.w3.org/2000/svg" xmlns:xlink="http://www.w3.org/1999/xlink">
    <!-- Generator: Sketch 52.1 (67048) - http://www.bohemiancoding.com/sketch -->
    <title>bx-arrow</title>
    <desc>Created with Sketch.</desc>
    <g id="Page-1" stroke="none" stroke-width="1" fill="none" fill-rule="evenodd">
        <g id="bx-arrow" transform="translate(1.000000, 1.000000)">
            <circle id="Oval" stroke="#005A70" fill="#FFFFFF" opacity="0.800000012" cx="10" cy="10" r="10"></circle>
            <g id="Particles-/-Icon-/-Arrow-Right" transform="translate(9.000000, 10.500000) rotate(-180.000000) translate(-9.000000, -10.500000) translate(6.000000, 8.000000)" fill="#005A70">
                <g id="Mask" transform="translate(2.665680, 2.474359) rotate(-90.000000) translate(-2.665680, -2.474359) translate(0.665680, -0.025641)">
                    <path d="M2.25739645,4.59294871 L3.85502958,2.86217949 C3.9260355,2.78525641 3.9260355,2.6698718 3.85502958,2.59294872 L3.60650888,2.32371795 C3.53550296,2.24679487 3.42899408,2.24679487 3.35798817,2.32371795 L2.69526627,3.04166667 C2.62426035,3.11858974 2.49408284,3.06730769 2.49408284,2.95192308 L2.49408284,0.221153846 C2.48224852,0.118589744 2.38757397,0.0288461538 2.30473373,0.0288461538 L1.94970414,0.0288461538 C1.85502958,0.0288461538 1.77218935,0.118589744 1.77218935,0.221153846 L1.77218935,2.93910256 C1.77218935,3.05448718 1.64201183,3.10576923 1.57100592,3.02884615 L0.908284023,2.31089744 C0.837278108,2.23397436 0.730769231,2.23397436 0.659763315,2.31089744 L0.411242604,2.59294872 C0.340236685,2.6698718 0.340236685,2.78525641 0.411242604,2.86217949 L2.00887574,4.59294871 C2.07988166,4.66987179 2.18639053,4.66987179 2.25739645,4.59294871 Z" id="path-1"></path>
                </g>
            </g>
        </g>
    </g>
</svg>