<?xml version="1.0" encoding="UTF-8"?>
<svg width="52px" height="52px" viewBox="0 0 52 52" version="1.1" xmlns="http://www.w3.org/2000/svg" xmlns:xlink="http://www.w3.org/1999/xlink">
    <!-- Generator: Sketch 52.1 (67048) - http://www.bohemiancoding.com/sketch -->
    <title>Group</title>
    <desc>Created with Sketch.</desc>
    <defs>
        <path d="M6.86923077,11.0230769 L11.0230769,6.86923077 C11.2076923,6.68461538 11.2076923,6.40769231 11.0230769,6.22307692 L10.3769231,5.57692308 C10.1923077,5.39230769 9.91538462,5.39230769 9.73076923,5.57692308 L8.00769231,7.3 C7.82307692,7.48461538 7.48461538,7.36153846 7.48461538,7.08461538 L7.48461538,0.530769231 C7.45384615,0.284615385 7.20769231,0.0692307692 6.99230769,0.0692307692 L6.06923077,0.0692307692 C5.82307692,0.0692307692 5.60769231,0.284615385 5.60769231,0.530769231 L5.60769231,7.05384615 C5.60769231,7.33076923 5.26923077,7.45384615 5.08461538,7.26923077 L3.36153846,5.54615385 C3.17692308,5.36153846 2.9,5.36153846 2.71538462,5.54615385 L2.06923077,6.22307692 C1.88461538,6.40769231 1.88461538,6.68461538 2.06923077,6.86923077 L6.22307692,11.0230769 C6.40769231,11.2076923 6.68461538,11.2076923 6.86923077,11.0230769 Z" id="path-1"></path>
    </defs>
    <g id="Symbols" stroke="none" stroke-width="1" fill="none" fill-rule="evenodd">
        <g id="Particles-/-Carousel-Arrow" transform="translate(1.000000, 1.000000)">
            <g id="Group">
                <circle id="Oval" stroke="#005A70" fill="#FFFFFF" opacity="0.800000012" cx="25" cy="25" r="25"></circle>
                <g id="Particles-/-Icon-/-Arrow-Right" transform="translate(24.500000, 25.500000) rotate(-180.000000) translate(-24.500000, -25.500000) translate(18.000000, 20.000000)">
                    <mask id="mask-2" fill="white">
                        <use xlink:href="#path-1"></use>
                    </mask>
                    <use id="Mask" fill="#005A70" fill-rule="evenodd" transform="translate(6.546154, 5.615385) rotate(-90.000000) translate(-6.546154, -5.615385) " xlink:href="#path-1"></use>
                </g>
            </g>
        </g>
    </g>
</svg>