<?xml version="1.0" encoding="UTF-8"?>
<svg width="19px" height="15px" viewBox="0 0 19 15" version="1.1" xmlns="http://www.w3.org/2000/svg" xmlns:xlink="http://www.w3.org/1999/xlink">
    <!-- Generator: Sketch 51.1 (57501) - http://www.bohemiancoding.com/sketch -->
    <title>Stroke 39</title>
    <desc>Created with Sketch.</desc>
    <defs></defs>
    <g id="Unused-Templates-at-Launch" stroke="none" stroke-width="1" fill="none" fill-rule="evenodd">
        <g id="J_1284_Media-gallery_XL" transform="translate(-511.000000, -1226.000000)" fill="#36A7DF">
            <g id="Group-4" transform="translate(498.000000, 1180.000000)">
                <g id="Group-8" transform="translate(1.000000, 33.000000)">
                    <path d="M31,14.945 C30.3109071,15.2475 29.7301729,15.2575 29.1138834,14.9583333 C29.9087952,14.49 29.9451969,14.1616667 30.2321779,13.2758333 C29.4889057,13.71 28.6652112,14.0258333 27.7890305,14.1966667 C27.0880859,13.4608333 26.0874621,13 24.981866,13 C22.8570219,13 21.1351363,14.6966667 21.1351363,16.7866667 C21.1351363,17.0841667 21.1689984,17.3733333 21.2341829,17.65 C18.0367582,17.4925 15.202504,15.9841667 13.3053823,13.6925 C12.9743807,14.2525 12.7839066,14.9033333 12.7839066,15.5975 C12.7839066,16.9116667 13.4636874,18.07 14.4956336,18.7491667 C13.8649528,18.7291667 13.2723668,18.5591667 12.7534308,18.2758333 C12.7525842,18.2916667 12.7525842,18.3066667 12.7525842,18.3233333 C12.7525842,20.1583333 14.0791303,21.6883333 15.8391107,22.0366667 C15.2753074,22.1875 14.6810283,22.2108333 14.1011406,22.1016667 C14.5912939,23.6058333 16.0118072,24.7008333 17.6947514,24.7316667 C16.0490554,26.0016667 14.00802,26.5308333 12,26.2991667 C13.7024149,27.3733333 15.7239797,28 17.8970772,28 C24.9725539,28 28.8404473,22.23 28.8404473,17.2258333 C28.8404473,17.0608333 28.8379077,16.8991667 28.8302887,16.7358333 C29.5811798,16.2025 30.4844502,15.705 31,14.945 L31,14.945 Z" id="Stroke-39"></path>
                </g>
            </g>
        </g>
    </g>
</svg>