<svg id="Layer_1" data-name="Layer 1" xmlns="http://www.w3.org/2000/svg" viewBox="0 0 26 25"><defs><style>.cls-1{fill:#fff;}</style></defs><title>linkedin-icon-white.svg</title><path class="cls-1" d="M3.33926,5.96725H3.31084A3.045,3.045,0,0,1,1.1019,5.14418,2.71505,2.71505,0,0,1,.25,3.10863a2.68417,2.68417,0,0,1,.86652-2.05017A3.20875,3.20875,0,0,1,3.39774.25a3.06523,3.06523,0,0,1,2.22274.80845A2.82516,2.82516,0,0,1,6.487,3.10863a2.69572,2.69572,0,0,1-.86652,2.03555A3.175,3.175,0,0,1,3.33926,5.96725ZM.76975,8.566h5.1975V24.67825H.76975Zm13.5135,16.11225v-9.3555a3.09615,3.09615,0,0,1,.82267-2.31,2.82831,2.82831,0,0,1,2.06519-.80845,2.58935,2.58935,0,0,1,2.04976.89494,4.09477,4.09477,0,0,1,.77962,2.74331v8.83575H25.198v-9.3555a7.755,7.755,0,0,0-1.71842-5.35627A5.77293,5.77293,0,0,0,18.961,8.04625a5.43562,5.43562,0,0,0-4.67775,2.74331l-.173-2.22356H8.99885l.0869,3.63825v12.474Z"/></svg>