<?xml version="1.0" encoding="utf-8"?>
<!-- Generator: Adobe Illustrator 21.1.0, SVG Export Plug-In . SVG Version: 6.00 Build 0)  -->
<svg version="1.1" id="Layer_1" xmlns="http://www.w3.org/2000/svg" xmlns:xlink="http://www.w3.org/1999/xlink" x="0px" y="0px"
	 viewBox="0 0 53.9 53.9" style="enable-background:new 0 0 53.9 53.9;" xml:space="preserve">
<style type="text/css">
	.st0{fill:#FFFFFF;}
</style>
<title>icon-plus_2</title>
<g>
	<path id="Link_download_copy_10" class="st0" d="M20.2,0v3.2H0V0H20.2z"/>
	<path id="Link_download_copy_10_1_" class="st0" d="M3.2,20.2H0V0h3.2V20.2z"/>
	<path id="Link_download_copy_10_2_" class="st0" d="M20.3,18L18,20.3L0,2.3L2.3,0L20.3,18z"/>
</g>
<g>
	<path id="Link_download_copy_10_5_" class="st0" d="M53.9,20.2h-3.2V0h3.2V20.2z"/>
	<path id="Link_download_copy_10_4_" class="st0" d="M33.8,3.3V0H54v3.2L33.8,3.3L33.8,3.3z"/>
	<path id="Link_download_copy_10_3_" class="st0" d="M35.9,20.3L33.6,18l18-18l2.3,2.3L35.9,20.3z"/>
</g>
<g>
	<path id="Link_download_copy_10_11_" class="st0" d="M33.8,53.9v-3.2H54v3.2H33.8z"/>
	<path id="Link_download_copy_10_10_" class="st0" d="M50.7,33.8h3.2V54h-3.2V33.8z"/>
	<path id="Link_download_copy_10_9_" class="st0" d="M33.7,35.9l2.3-2.3l18,18l-2.3,2.3L33.7,35.9z"/>
</g>
<g>
	<path id="Link_download_copy_10_8_" class="st0" d="M0,33.7h3.2v20.2H0V33.7z"/>
	<path id="Link_download_copy_10_7_" class="st0" d="M20.2,50.7v3.2H0v-3.2H20.2z"/>
	<path id="Link_download_copy_10_6_" class="st0" d="M18,33.7l2.3,2.3l-18,18L0,51.6L18,33.7z"/>
</g>
</svg>
