<svg id="Layer_1" data-name="Layer 1" xmlns="http://www.w3.org/2000/svg" viewBox="0 0 40 25"><defs><style>.cls-1{fill:#fff;}</style></defs><title>Google+ Logo-white.svg</title><path class="cls-1" d="M13,10.07428v4.85144s4.70636-.00629,6.62274-.00629C18.58508,18.06451,16.97137,19.77722,13,19.77722A7.17472,7.17472,0,0,1,5.84406,12.5,7.17469,7.17469,0,0,1,13,5.22278a6.9401,6.9401,0,0,1,4.75616,1.7879c1.00763-1.00763.92346-1.15125,3.48706-3.57227A12.25,12.25,0,1,0,13,24.75c10.11255,0,12.58423-8.80542,11.76483-14.67572Zm22.07428.24255V6.07178H32.04205v4.24506H27.67572V13.349h4.36633v4.36633h3.03223V13.349h4.24506V10.31683Z"/></svg>