<svg id="Layer_1" data-name="Layer 1" xmlns="http://www.w3.org/2000/svg" viewBox="0 0 22 15"><title>Social-media-heart-icon-black.svg</title><path d="M11.29688,14.86719l-.2998-.22021a34.73553,34.73553,0,0,1-5.85352-4.9502A6.96759,6.96759,0,0,1,3.80762,3.123,3.20494,3.20494,0,0,1,6.127.77246,5.15483,5.15483,0,0,1,9.5127.79492a6.34462,6.34462,0,0,1,1.72363,1.59473A6.38263,6.38263,0,0,1,12.96289.79443a5.1623,5.1623,0,0,1,3.38477-.022A3.20494,3.20494,0,0,1,18.667,3.123a6.97781,6.97781,0,0,1-1.35156,6.59326,35.63167,35.63167,0,0,1-5.72168,4.92725ZM7.80176,1.49951A4.0681,4.0681,0,0,0,6.459,1.71582,2.2054,2.2054,0,0,0,4.77832,3.36523,5.984,5.984,0,0,0,5.93066,9.07959a33.01351,33.01351,0,0,0,5.3584,4.54053,33.93942,33.93942,0,0,0,5.24121-4.522,5.99606,5.99606,0,0,0,1.166-5.73291,2.2054,2.2054,0,0,0-1.68066-1.64941,4.24217,4.24217,0,0,0-2.61426-.02246A6.95708,6.95708,0,0,0,11.626,3.48926l-.38965.48291-.38965-.4834A6.96374,6.96374,0,0,0,9.07422,1.69385,3.63831,3.63831,0,0,0,7.80176,1.49951Z"/></svg>