<?xml version="1.0" encoding="utf-8"?>
<!-- Generator: Adobe Illustrator 21.1.0, SVG Export Plug-In . SVG Version: 6.00 Build 0)  -->
<svg version="1.1" id="Layer_1" xmlns="http://www.w3.org/2000/svg" xmlns:xlink="http://www.w3.org/1999/xlink" x="0px" y="0px"
	 viewBox="0 0 25 25" style="enable-background:new 0 0 25 25;" xml:space="preserve">
<style type="text/css">
	.st0{fill:#FFFFFF;}
</style>
<title>Instagram-icon-white.svg</title>
<path class="st0" d="M12.5,2.4c3.3,0,3.7,0,5,0.1c0.8,0,1.6,0.2,2.3,0.4c0.5,0.2,1,0.5,1.4,0.9c0.4,0.4,0.7,0.9,0.9,1.4
	c0.3,0.7,0.4,1.5,0.4,2.3c0.1,1.3,0.1,1.7,0.1,5s0,3.7-0.1,5c0,0.8-0.2,1.6-0.4,2.3c-0.4,1.1-1.3,1.9-2.3,2.3
	c-0.7,0.3-1.5,0.4-2.3,0.4c-1.3,0.1-1.7,0.1-5,0.1s-3.7,0-5-0.1c-0.8,0-1.6-0.2-2.3-0.4c-0.5-0.2-1-0.5-1.4-0.9
	c-0.4-0.4-0.7-0.9-0.9-1.4c-0.3-0.7-0.4-1.5-0.4-2.3c-0.1-1.3-0.1-1.7-0.1-5s0-3.7,0.1-5c0-0.8,0.2-1.6,0.4-2.3
	c0.2-0.5,0.5-1,0.9-1.4c0.4-0.4,0.9-0.7,1.4-0.9c0.7-0.3,1.5-0.4,2.3-0.4C8.8,2.4,9.2,2.4,12.5,2.4 M12.5,0.1c-3.4,0-3.8,0-5.1,0.1
	c-1,0-2,0.2-3,0.6C3.6,1.1,2.8,1.6,2.2,2.2C1.6,2.8,1.1,3.6,0.8,4.4c-0.4,1-0.6,2-0.6,3c-0.1,1.3-0.1,1.7-0.1,5.1s0,3.8,0.1,5.1
	c0,1,0.2,2,0.6,3c0.3,0.8,0.8,1.6,1.4,2.2c0.6,0.6,1.4,1.1,2.2,1.4c1,0.4,2,0.6,3,0.6c1.3,0.1,1.7,0.1,5.1,0.1s3.8,0,5.1-0.1
	c1,0,2-0.2,3-0.6c1.7-0.6,3-2,3.6-3.6c0.4-1,0.6-2,0.6-3c0.1-1.3,0.1-1.7,0.1-5.1s0-3.8-0.1-5.1c0-1-0.2-2-0.6-3
	c-0.3-0.8-0.8-1.6-1.4-2.2c-0.6-0.6-1.4-1.1-2.2-1.4c-1-0.4-2-0.6-3-0.6C16.3,0.1,15.9,0.1,12.5,0.1"/>
<path class="st0" d="M12.5,6.1C9,6.1,6.1,9,6.1,12.5s2.8,6.4,6.4,6.4c3.5,0,6.4-2.8,6.4-6.4v0C18.9,9,16,6.1,12.5,6.1 M12.5,16.6
	c-2.3,0-4.1-1.8-4.1-4.1s1.8-4.1,4.1-4.1s4.1,1.8,4.1,4.1S14.8,16.6,12.5,16.6L12.5,16.6"/>
<path class="st0" d="M20.6,5.9c0,0.8-0.7,1.5-1.5,1.5c-0.8,0-1.5-0.7-1.5-1.5c0-0.8,0.7-1.5,1.5-1.5S20.6,5.1,20.6,5.9L20.6,5.9"/>
</svg>
