<?xml version="1.0" encoding="UTF-8"?>
<svg width="18px" height="17px" viewBox="0 0 18 17" version="1.1" xmlns="http://www.w3.org/2000/svg" xmlns:xlink="http://www.w3.org/1999/xlink">
    <!-- Generator: Sketch 51.1 (57501) - http://www.bohemiancoding.com/sketch -->
    <title>Stroke 69</title>
    <desc>Created with Sketch.</desc>
    <defs></defs>
    <g id="Unused-Templates-at-Launch" stroke="none" stroke-width="1" fill="none" fill-rule="evenodd">
        <g id="J_1284_Media-gallery_XL" transform="translate(-664.000000, -1224.000000)" fill="#027BB5">
            <g id="Group-4" transform="translate(498.000000, 1180.000000)">
                <g id="Group-10" transform="translate(154.000000, 33.000000)">
                    <path d="M24.0077044,20.3088524 C23.0617777,20.3088524 22.2956199,21.0745488 22.2956199,22.0179963 L22.2956199,28 L18.0154088,28 C18.0154088,28 18.0659153,17.7451365 18.0154088,16.8905645 L22.2956199,16.8905645 L22.2956199,18.1596039 C22.2956199,18.1596039 23.6207733,16.9264565 25.6675703,16.9264565 C28.2023113,16.9264565 30,18.7578043 30,22.3136782 L30,28 L25.7197888,28 L25.7197888,22.0179963 C25.7197888,21.0745488 24.953631,20.3088524 24.0077044,20.3088524 L24.0077044,20.3088524 Z M14.1546583,15.1814206 L14.1298331,15.1814206 C12.8363533,15.1814206 12,14.1713165 12,13.0612276 C12,11.9255014 12.8620345,11 14.1803396,11 C15.4995006,11 16.3101726,11.9554115 16.3358539,13.0911376 C16.3358539,14.2020811 15.4995006,15.1814206 14.1546583,15.1814206 L14.1546583,15.1814206 Z M16.3033243,28 L12.0231131,28 L12.0231131,16.8905645 L16.3033243,16.8905645 L16.3033243,28 Z" id="Stroke-69"></path>
                </g>
            </g>
        </g>
    </g>
</svg>