<svg id="Layer_1" data-name="Layer 1" xmlns="http://www.w3.org/2000/svg" viewBox="0 0 32 25"><defs><style>.cls-1{fill:#fff;}</style></defs><title>youtube-icon-white.svg</title><path class="cls-1" d="M15.80719,1.25a88.00591,88.00591,0,0,1,10.92822.39531q2.87537.53913,3.77417,2.3006.79012,1.50972.827,6.21935V12.25a36.58523,36.58523,0,0,1-.43171,7.26121A4.03038,4.03038,0,0,1,28.31666,22.423q-2.08525.79164-8.87886.827H15.80719A87.89938,87.89938,0,0,1,4.879,22.85469q-2.87688-.53913-3.77417-2.3006-.79164-1.50972-.827-6.21935V12.25A36.58879,36.58879,0,0,1,.70949,4.98879,4.03038,4.03038,0,0,1,3.29772,2.077q2.08373-.79088,8.87886-.827ZM11.92484,18.07353,21.63072,12.25,11.92484,6.42647Z"/></svg>