<svg id="Layer_1" data-name="Layer 1" xmlns="http://www.w3.org/2000/svg" viewBox="0 0 27 25"><defs><style>.cls-1{fill:#fff;}</style></defs><title>twitter-icon-white.svg</title><path class="cls-1" d="M26.75,4.79562a11.06769,11.06769,0,0,1-2.69917,2.82166v.70563a15.64292,15.64292,0,0,1-2.56115,8.54176,16.104,16.104,0,0,1-3.11323,3.54282,14.10016,14.10016,0,0,1-4.33989,2.45418,15.82985,15.82985,0,0,1-5.44406.91956A15.1075,15.1075,0,0,1,.25,21.57292a9.11625,9.11625,0,0,0,1.28791.09144,10.66356,10.66356,0,0,0,6.74836-2.57581A5.22935,5.22935,0,0,1,5.142,17.9999,5.34757,5.34757,0,0,1,3.22521,15.3154,5.6454,5.6454,0,0,0,5.67853,15.224a5.24527,5.24527,0,0,1-3.11323-1.871A5.28151,5.28151,0,0,1,1.32311,9.88773V9.82562a5.25837,5.25837,0,0,0,2.45418.67458A5.13842,5.13842,0,0,1,1.35417,5.99209,5.25621,5.25621,0,0,1,2.09,3.35417,15.2301,15.2301,0,0,0,7.04408,7.29552a15.65287,15.65287,0,0,0,6.24113,1.64072,5.55663,5.55663,0,0,1-.12249-1.25685A5.25416,5.25416,0,0,1,14.74219,3.845,5.21146,5.21146,0,0,1,18.59124,2.25a5.34136,5.34136,0,0,1,3.98708,1.7175,11.18824,11.18824,0,0,0,3.43586-1.319,5.15257,5.15257,0,0,1-2.39294,3.0054A11.15386,11.15386,0,0,0,26.75,4.79562Z"/></svg>