<svg id="Layer_1" data-name="Layer 1" xmlns="http://www.w3.org/2000/svg" viewBox="0 0 22 15"><title>Social-media-arrows-icon-black.svg</title><path d="M9.405,1.31V2.37h5.83a1.59058,1.59058,0,0,1,1.59,1.59v8.6602L14.04356,9.44126l-.79712.69854L17.355,14.83454l4.10856-4.69474-.79712-.69854L17.885,12.6202V3.96a2.64961,2.64961,0,0,0-2.65-2.65ZM.925,4.9458l.79818.69854L4.50356,2.4654v8.65914a2.65119,2.65119,0,0,0,2.65,2.65106h5.83v-1.06h-5.83a1.59081,1.59081,0,0,1-1.59-1.59106V2.4654L8.345,5.64434l.79818-.69854L5.03462.25Z"/></svg>