<svg id="Layer_1" data-name="Layer 1" xmlns="http://www.w3.org/2000/svg" viewBox="0 0 22 15"><title>twitter-icon_sml-black.svg</title><path d="M19.703,2.0601a7.30175,7.30175,0,0,1-1.78074,1.86155v.46553a10.3202,10.3202,0,0,1-1.68968,5.63531,10.62441,10.62441,0,0,1-2.05391,2.33733,9.30238,9.30238,0,0,1-2.86318,1.61911,10.44352,10.44352,0,0,1-3.59164.60667A9.967,9.967,0,0,1,2.22,13.12869a6.01432,6.01432,0,0,0,.84968.06033,7.03513,7.03513,0,0,0,4.45213-1.69936,3.45,3.45,0,0,1-2.0744-.71821A3.528,3.528,0,0,1,4.18281,9.00037,3.72448,3.72448,0,0,0,5.80136,8.94a3.4605,3.4605,0,0,1-2.05391-1.2344,3.4844,3.4844,0,0,1-.81952-2.28611v-.041a3.46914,3.46914,0,0,0,1.61911.445A3.39,3.39,0,0,1,2.94842,2.84945a3.46771,3.46771,0,0,1,.48545-1.74033A10.04784,10.04784,0,0,0,6.70225,3.70938a10.32676,10.32676,0,0,0,4.1175,1.08244,3.66591,3.66591,0,0,1-.08081-.82919,3.46636,3.46636,0,0,1,1.042-2.52969A3.43819,3.43819,0,0,1,14.32034.38066a3.52389,3.52389,0,0,1,2.63042,1.13309A7.38129,7.38129,0,0,0,19.21751.64359a3.39934,3.39934,0,0,1-1.57871,1.98277A7.3586,7.3586,0,0,0,19.703,2.0601Z"/></svg>