<?xml version="1.0" encoding="UTF-8"?>
<svg width="12px" height="12px" viewBox="0 0 12 12" version="1.1" xmlns="http://www.w3.org/2000/svg" xmlns:xlink="http://www.w3.org/1999/xlink">
    <!-- Generator: Sketch 52.1 (67048) - http://www.bohemiancoding.com/sketch -->
    <title>Group 2</title>
    <desc>Created with Sketch.</desc>
    <g id="Contact" stroke="none" stroke-width="1" fill="none" fill-rule="evenodd">
        <g id="TIOS_Contact_1440-/-3-Expanded-Area-Offices" transform="translate(-167.000000, -780.000000)" fill="#06847D">
            <g id="Group-2" transform="translate(167.000000, 780.000000)">
                <path d="M3.22408766e-13,0.5 C3.22408766e-13,0.223857625 0.22806129,0 0.497545315,0 L10.4215723,0 C10.696359,0 10.9191176,0.231933594 10.9191176,0.5 L10.9191176,0.5 C10.9191176,0.776142375 10.6910564,1 10.4215723,1 L0.497545315,1 C0.222758625,1 3.22408766e-13,0.768066406 3.22408766e-13,0.5 L3.22408766e-13,0.5 Z" id="Rectangle-11"></path>
                <rect id="Rectangle-12" x="10" y="0" width="1" height="12" rx="0.5"></rect>
                <path d="M-1.81360528,6.5740074 C-1.79966711,6.18500358 -1.47397854,5.85912462 -1.09178144,5.84632465 L13.2538932,5.36588099 C13.6386074,5.35299673 13.9393555,5.65302257 13.9252425,6.04690569 L13.9428589,5.55524619 C13.9289207,5.94425002 13.6032321,6.27012898 13.221035,6.28292894 L-1.12463965,6.7633726 C-1.50935377,6.77625687 -1.81010191,6.47623102 -1.79598891,6.0823479 L-1.81360528,6.5740074 Z" id="Rectangle-3" transform="translate(6.064627, 6.064627) rotate(-45.000000) translate(-6.064627, -6.064627) "></path>
            </g>
        </g>
    </g>
</svg>