<?xml version="1.0" encoding="UTF-8"?>
<svg width="238px" height="40px" viewBox="0 0 238 40" version="1.1" xmlns="http://www.w3.org/2000/svg" xmlns:xlink="http://www.w3.org/1999/xlink">
    <!-- Generator: Sketch 54.1 (76490) - https://sketchapp.com -->
    <title>Group 4</title>
    <desc>Created with Sketch.</desc>
    <defs>
        <rect id="path-1" x="0" y="0" width="177" height="40"></rect>
        <path d="M1.42944167,0.103233807 C0.86807629,0.158501415 0.479106827,0.490715512 0.260094603,1.04237751 L0.260094603,1.04237751 C-0.0155700339,1.73631556 0.0445528079,2.47213531 0.137222648,3.18310999 L0.137222648,3.18310999 C0.216573544,3.79196635 0.542231122,4.2783213 1.11260086,4.49837764 L1.11260086,4.49837764 C1.30131717,4.57118891 1.50278966,4.61935793 1.70201106,4.64349314 L1.70201106,4.64349314 C2.28373004,4.71366779 2.84368849,4.64602835 3.36247076,4.29495228 L3.36247076,4.29495228 C3.32176356,4.02277199 3.28537096,3.77918888 3.24494514,3.50873253 L3.24494514,3.50873253 C3.04290988,3.56146493 2.8658242,3.62119451 2.68451772,3.65181986 L2.68451772,3.65181986 C2.44046213,3.6930931 2.18937188,3.75566212 1.94803635,3.73152691 L1.94803635,3.73152691 C1.39501876,3.67615789 1.08887063,3.27995506 1.10275234,2.64990433 L1.10275234,2.64990433 L3.40964984,2.64990433 C3.54630972,1.98476628 3.50325764,1.41140287 3.25029148,0.898783134 L3.25029148,0.898783134 C3.02368183,0.439605651 2.64578022,0.129092963 2.13065597,0.101307046 L2.13065597,0.101307046 C2.00356322,0.0945126798 1.87572011,0.0889352148 1.74806459,0.0889352148 L1.74806459,0.0889352148 C1.64151304,0.0889352148 1.53505527,0.0927887361 1.42944167,0.103233807 L1.42944167,0.103233807 Z M1.27505447,1.13425357 C1.45335949,1.06326765 1.64057508,0.988833842 1.80087139,0.925047924 L1.80087139,0.925047924 C2.40753995,1.11113244 2.49570761,1.2246085 2.55573665,1.88457472 L2.55573665,1.88457472 L1.09365419,1.88457472 C0.979505207,1.56473246 1.1645635,1.376924 1.27505447,1.13425357 L1.27505447,1.13425357 Z" id="path-3"></path>
    </defs>
    <g id="Symbols" stroke="none" stroke-width="1" fill="none" fill-rule="evenodd">
        <g id="Navigation-/-Default" transform="translate(-93.000000, -21.000000)">
            <g id="Group-4" transform="translate(93.000000, 21.000000)">
                <g id="Group-3">
                    <mask id="mask-2" fill="white">
                        <use xlink:href="#path-1"></use>
                    </mask>
                    <g id="Rectangle"></g>
                    <g id="Logo/white" mask="url(#mask-2)">
                        <g id="Group-100">
                            <g id="Group-45" fill="#FFFFFF">
                                <path d="M73.7846837,33.6651833 C75.1437789,33.7278537 76.5003415,33.6636622 77.8432101,33.4463439 C79.2469518,33.2191889 80.6266819,32.8811945 81.9482589,32.2806537 C84.0606247,31.3207212 85.6765316,29.7893522 86.7115637,27.5745915 C87.576451,25.72409 87.9604493,23.7216787 88.0490859,21.6767772 C88.115962,20.1314138 88.1467269,18.5748954 87.9886817,17.0234474 C87.8859757,16.0157516 87.749691,15.0192107 87.4979442,14.0444727 C87.0986573,12.4987036 86.4786698,11.0677289 85.4965383,9.84961053 C84.5241615,8.6437626 83.3120438,7.80318792 81.9458202,7.20386395 C80.8555426,6.72552027 79.725871,6.39959349 78.5675918,6.21340757 C77.6150059,6.06038221 76.6529466,5.94325545 75.6915439,5.89893995 C74.8398818,5.85969488 73.9839989,5.82663572 73.1291478,5.8802808 C72.3983879,5.92621883 71.6644391,5.92246671 70.9357427,5.99010615 C70.177407,6.06048362 69.4185086,6.15763292 68.6690834,6.3001118 C66.8366968,6.64865266 65.1100175,7.29310339 63.5697097,8.46660203 C62.2274978,9.48920488 61.2818527,10.8464556 60.6214394,12.4451599 C59.8335582,14.3524501 59.5735573,16.3923826 59.482013,18.4510757 C59.4065078,20.1509856 59.4763853,21.8508955 59.7369489,23.540259 C59.9934793,25.2035604 60.4231559,26.7925295 61.2302652,28.2456113 C61.7655555,29.2091944 62.4399443,30.0453071 63.2530565,30.7452283 C64.4053328,31.737003 65.7105894,32.3982875 67.1238045,32.8306931 C68.796739,33.3425016 70.5018453,33.6121467 72.2374351,33.6628509 C72.7528407,33.6778594 73.2689029,33.6651833 73.7846837,33.6651833 L73.7846837,33.6651833 Z M75.9742432,1.01408455e-05 C76.044496,0.0313453534 76.1133418,0.0855988766 76.1850952,0.0904664825 C76.7910134,0.132246766 77.3986199,0.149790428 78.0034126,0.204753811 C78.5608385,0.25535663 79.1199528,0.316100294 79.6703442,0.420855228 C80.5901017,0.595886221 81.5125793,0.770612988 82.417611,1.01581863 C83.9039865,1.41851161 85.3504051,1.95810599 86.7192549,2.71542433 C88.4049456,3.64797648 89.8874755,4.87603287 91.132234,6.41429772 C92.2209171,7.75968369 93.0060782,9.31478234 93.6012099,10.9793007 C94.1262765,12.4475937 94.4457436,13.968822 94.660535,15.5275713 C94.9214738,17.4217798 94.9865678,19.3242025 94.9072169,21.2254082 C94.8171733,23.3809463 94.5288463,25.5145802 93.9062325,27.5797633 C93.3944849,29.2771381 92.6800455,30.866817 91.696976,32.3019495 C90.4827948,34.0747721 88.9596515,35.4676172 87.1765074,36.5444736 C85.5547852,37.5236736 83.8328896,38.2036173 82.0334251,38.6667497 C80.7605279,38.994299 79.4692468,39.1972173 78.1687738,39.3653526 C75.864315,39.663392 73.5545099,39.5530596 71.2478938,39.5299385 C70.1813464,39.519392 69.1162998,39.293961 68.0512532,39.1591892 C66.4334704,38.9544455 64.8674627,38.5136229 63.3271549,37.9505018 C61.5505765,37.301082 59.9110331,36.365082 58.4397587,35.1165411 C56.8746889,33.7882932 55.642499,32.1513579 54.7239607,30.2299719 C53.8247444,28.3489465 53.2702261,26.3609351 52.9777721,24.27689 C52.8187889,23.1443604 52.6901954,22.0102082 52.7051089,20.8608448 C52.7089545,20.5602701 52.6575546,20.2589856 52.6361693,19.9577011 C52.6266959,19.8234363 52.6202241,19.6877518 52.6271649,19.5536898 C52.6512703,19.0836616 52.6917899,18.6145461 52.7082041,18.1443151 C52.8230097,14.8482361 53.4407461,11.6907824 54.9396901,8.78350345 C55.4341794,7.8245851 56.0388783,6.9514583 56.7264922,6.13359912 C57.5941933,5.10146386 58.5775441,4.23513144 59.6554407,3.48663563 C60.6306313,2.80942997 61.6744802,2.27642713 62.7587548,1.83550317 C64.3409892,1.19206653 65.9668384,0.735322846 67.6437123,0.495694668 C68.5528709,0.365790437 69.4609041,0.226860854 70.3714697,0.11034254 C70.6491978,0.074748172 70.9340544,0.110545357 71.2145964,0.0935087361 C71.3641062,0.0844833836 71.511365,0.0325622548 71.6596555,1.01408455e-05 L75.9742432,1.01408455e-05 Z" id="Fill-1"></path>
                                <path d="M116.118687,0 C116.20451,0.0320450717 116.289207,0.0882253556 116.376343,0.0926873276 C119.001019,0.229081699 121.574295,0.722839465 124.11268,1.43016344 C125.046038,1.69027612 125.956979,2.04459726 126.921101,2.37042263 C126.614297,4.27467059 126.316684,6.121927 126.011286,8.01725102 C125.582641,7.88440595 125.194797,7.77245101 124.811643,7.64366228 C123.126328,7.07770169 121.4155,6.62105942 119.676627,6.30192701 C118.69609,6.12202841 117.703266,6.02224249 116.717008,5.87814108 C115.181108,5.65362276 113.634422,5.6205636 112.093739,5.6984453 C110.460762,5.78109319 108.82966,5.98198334 107.269374,6.56254674 C106.092711,7.00032704 104.98827,7.58383129 104.150958,8.63016372 C103.325653,9.66128489 102.993148,10.811561 103.437832,12.1397075 C103.677386,12.8555498 104.179285,13.3306484 104.752468,13.7289808 C105.738727,14.414502 106.836602,14.8130372 107.966555,15.0787274 C109.609662,15.4650936 111.266652,15.781995 112.918013,16.1268851 C114.752932,16.5101077 116.59226,16.870919 118.422208,17.2809134 C119.660119,17.5582655 120.87552,17.9379387 122.052464,18.4474148 C123.688819,19.1558543 125.238693,20.0192459 126.441713,21.4584347 C127.48378,22.7051502 128.138472,24.1596517 128.311618,25.8421193 C128.368458,26.3932743 128.410103,26.9506152 128.402318,27.5043053 C128.370803,29.7304237 127.761977,31.7613308 126.504744,33.5293872 C125.415592,35.0612634 124.053401,36.2550437 122.458317,37.1418606 C120.621897,38.1629424 118.677519,38.8016128 116.644785,39.1602945 C115.150156,39.4239565 113.651587,39.6042607 112.134259,39.5548748 C111.790593,39.5437199 111.446457,39.5501086 111.102603,39.5537593 C109.91703,39.566334 108.733613,39.5558889 107.557138,39.358041 C106.696847,39.2133311 105.826425,39.1323058 104.971668,38.9584917 C103.946578,38.7500973 102.924865,38.5075283 101.916752,38.21821 C100.208269,37.7279001 98.5564389,37.0587057 96.9576966,36.2405423 C96.8731869,36.1973423 96.7922415,36.1465366 96.6508918,36.0656127 C96.9303083,34.1128915 97.2117883,32.1457703 97.4973952,30.1498491 C97.8849577,30.338266 98.241474,30.4977815 98.5869224,30.6818378 C100.970076,31.9516745 103.483135,32.7966098 106.086145,33.3317422 C106.864084,33.4917647 107.659656,33.5486549 108.445005,33.6697365 C109.824547,33.8826943 111.212719,33.9041929 112.599578,33.859776 C114.571438,33.7964971 116.517411,33.5143788 118.366775,32.7293759 C119.450955,32.269083 120.440966,31.6237196 121.207462,30.6446209 C121.889448,29.7736237 122.260878,28.7671448 122.2046,27.619911 C122.157515,26.6584574 121.733841,25.88177 121.041256,25.2857926 C120.145323,24.5145813 119.092938,24.0873474 118.012603,23.7377925 C115.991969,23.0839108 113.909712,22.7382094 111.844056,22.3067164 C110.023956,21.9265361 108.203951,21.5386487 106.397358,21.0907276 C104.781639,20.6900628 103.209722,20.1190318 101.731694,19.2933641 C100.615998,18.6701078 99.5871564,17.9041697 98.7563169,16.8696007 C97.919193,15.827426 97.3823083,14.6212738 97.1754894,13.2565188 C97.0902294,12.6932963 96.977206,12.1179047 97.0053446,11.5554934 C97.0690317,10.2785582 97.1953741,9.00740317 97.6783265,7.80753834 C97.9918845,7.02872141 98.362939,6.29736363 98.8322911,5.61539177 C99.6074162,4.48914947 100.566286,3.5850931 101.661629,2.85272124 C103.628331,1.53775781 105.778871,0.761577495 108.059506,0.398940861 C108.828253,0.276743673 109.602628,0.196428177 110.373813,0.0912676093 C110.446505,0.0814309892 110.5146,0.031436621 110.584759,0 L116.118687,0 Z" id="Fill-3"></path>
                                <path d="M0,2.63661982 C0.0300145232,2.45925644 0.080851622,2.28270432 0.0860103682,2.10452966 C0.0986727452,1.66898035 0.0901373651,1.23251836 0.0901373651,0.855177499 C0.15466859,0.786118341 0.164892287,0.772833834 0.177179483,0.762692988 C0.189279087,0.752856368 0.203160804,0.740484536 0.216948726,0.739064818 C0.340758634,0.726794395 0.464662338,0.707323972 0.588472246,0.707323972 C12.5778674,0.70874369 24.5672625,0.711785944 36.5565638,0.716552141 C36.6003662,0.716552141 36.6442625,0.743831015 36.6917229,0.759650734 C36.7140462,0.80457468 36.7536279,0.847673273 36.7545658,0.891785951 C36.7927405,2.69624799 36.82782,4.50091285 36.8609298,6.30557772 C36.8620553,6.37027631 36.8393569,6.43558335 36.8176901,6.55666505 C36.6244716,6.56954392 36.4286269,6.59367914 36.2327821,6.59378054 C31.5745281,6.59591012 26.9163679,6.59550449 22.2581139,6.59550449 L21.6099878,6.59550449 C21.597044,6.84314393 21.5780035,7.03876084 21.5779097,7.23437775 C21.57594,9.97220321 21.5765966,12.7101301 21.5765966,15.4479555 L21.5765966,38.0100184 L21.5765966,38.6365198 C21.1717757,38.7662213 15.6386922,38.7836635 15.1291956,38.6637987 C15.1199099,38.4484072 15.1011508,38.2180072 15.1011508,37.9876071 C15.0997439,27.7797307 15.0999315,17.5719556 15.0999315,7.36407917 L15.0999315,6.59885097 C10.0235376,6.59641716 5.01176881,6.59398336 0,6.59154956 L0,2.63661982 Z" id="Fill-5"></path>
                                <path d="M43.452635,53.7130061 L43.452635,55.7168371 C43.7903922,56.0659865 44.1138924,56.1682062 44.4405818,56.0264372 C44.7924083,55.8739188 44.8958646,55.5355188 44.9196886,55.1731864 C44.9427623,54.8218061 44.9370407,54.4663695 44.9201576,54.1140765 C44.9006481,53.7083413 44.683418,53.4263244 44.3424718,53.3631469 C44.0050898,53.3006793 43.688249,53.3450962 43.452635,53.7130061 L43.452635,53.7130061 Z M42.3954672,58.005626 L42.3954672,52.5974117 C42.5963769,52.5278455 42.7819042,52.4636539 42.9653679,52.4001722 C43.0976194,52.5129384 43.2045462,52.604206 43.3263864,52.7081497 C43.4226205,52.6644427 43.5237319,52.6238793 43.6205287,52.5737835 C44.0830338,52.3343581 44.5659862,52.3721835 45.0367452,52.498437 C45.5412706,52.6338173 45.7428369,53.1058737 45.8440421,53.5862455 C45.9753557,54.208792 45.9790137,54.8385385 45.887188,55.4880597 C45.7354271,56.5607583 44.8211096,57.331564 43.6464162,56.8417611 C43.565846,56.8080935 43.4879958,56.7667189 43.4272164,56.7377161 L43.4272164,58.005626 L42.3954672,58.005626 Z" id="Fill-7"></path>
                                <path d="M168.100202,55.6034219 C168.487952,56.0688867 168.542916,56.0920079 169.10944,56.0536755 C169.427031,55.9159628 169.627097,55.6547346 169.656267,55.2980811 C169.689002,54.8974163 169.699132,54.4855965 169.651484,54.0881768 C169.566693,53.3813599 168.878516,53.0966049 168.348197,53.526881 C168.251494,53.6052697 168.179459,53.71905 168.100202,53.8116359 L168.100202,55.6034219 Z M167.143395,58.0055854 L167.143395,52.5987908 C167.340553,52.5292246 167.525236,52.4641204 167.708231,52.3996246 C167.840951,52.5109711 167.948535,52.601326 168.052835,52.6889429 C168.088946,52.6826556 168.125433,52.6875232 168.1486,52.6707908 C168.614201,52.3351288 169.140768,52.3779232 169.644074,52.4563119 C170.072156,52.5230387 170.360952,52.8742162 170.492828,53.3130106 C170.763803,54.2147345 170.801415,55.1195008 170.464596,56.0245712 C170.172892,56.80856 169.421685,57.092098 168.833588,56.9690896 C168.606322,56.9216304 168.385434,56.8388811 168.100952,56.7542051 C168.094293,57.1842783 168.087727,57.5949826 168.081349,58.0055854 L167.143395,58.0055854 Z" id="Fill-9"></path>
                                <path d="M179.618163,58.0056361 L179.618163,57.2193149 C180.087233,57.3205206 180.474233,57.2924304 180.719883,56.7935008 C180.150827,55.389298 179.572578,53.962481 178.967973,52.4709655 L180.059282,52.4709655 C180.413454,53.47785 180.781413,54.5238782 181.189704,55.6847008 C181.505795,54.5505486 181.794215,53.5156754 182.097362,52.4281711 L182.994796,52.4281711 L182.994796,52.9352134 C182.95831,53.007619 182.911975,53.0763739 182.886838,53.1530387 C182.496931,54.3384022 182.103553,55.5223459 181.725088,56.7119685 C181.554006,57.2496361 181.317735,57.7220981 180.837503,58.0056361 L179.618163,58.0056361 Z" id="Fill-11"></path>
                                <path d="M40.594033,0.743029889 L47.0107629,0.743029889 C47.1145944,1.19825244 47.1186276,38.2174088 47.0232377,38.6633018 C46.6378325,38.771099 40.9953835,38.7748511 40.5890619,38.667561 C40.4924526,38.2497581 40.4885132,1.22979047 40.594033,0.743029889" id="Fill-13"></path>
                                <path d="M52.9082415,55.2016011 C53.4059199,53.881263 53.86336,52.6676066 54.3231449,51.4476629 L55.3570515,51.4476629 C55.4621023,51.9012629 55.4654789,56.3740856 55.3611785,56.8542547 L54.5096102,56.8542547 L54.5096102,53.7592686 C54.4769694,53.7527785 54.4443286,53.7462883 54.4116878,53.7396968 C54.0240314,54.7765982 53.6364689,55.8133983 53.2467491,56.8554716 L52.5163644,56.8554716 C52.1005695,55.7412969 51.6940603,54.651663 51.2874573,53.5620292 C51.2623201,53.564463 51.2370892,53.5669982 51.2118582,53.569432 L51.2118582,56.8506039 L50.4489265,56.8506039 C50.3438757,56.4523729 50.3278367,52.0007446 50.4321372,51.4540516 L51.4510364,51.4540516 C51.9897971,52.6083841 52.3386222,53.9026602 52.9082415,55.2016011" id="Fill-15"></path>
                                <path d="M160.986038,52.5420528 C161.185916,52.4928697 161.374444,52.4466274 161.555657,52.4020077 C161.655549,52.5220753 161.725614,52.6063458 161.807967,52.7054218 C162.497456,52.330819 163.177004,52.244419 163.870808,52.8277204 C164.240831,52.477557 164.700616,52.3844641 165.199795,52.4208697 C165.759285,52.4617373 166.14938,52.779957 166.28332,53.3572754 C166.324871,53.5367683 166.376646,53.7205204 166.378428,53.9027514 C166.387901,54.8639008 166.382836,55.8252529 166.382836,56.780622 C166.095916,56.9821206 165.81725,56.8532304 165.495157,56.8934896 C165.478274,56.6916868 165.454168,56.5310558 165.453043,56.3703234 C165.448634,55.6942332 165.453418,55.0182444 165.450041,54.3421543 C165.448072,53.9554838 165.368908,53.6035965 165.039405,53.3875965 C164.381806,53.3012979 164.151257,53.5041148 164.145629,54.182943 C164.13972,54.8927008 164.145629,55.60256 164.143096,56.3124191 C164.14244,56.4776135 164.129027,56.6426051 164.119554,56.8495797 L163.234688,56.8495797 C163.222682,56.6688699 163.203173,56.5062107 163.202423,56.3433487 C163.198858,55.6335909 163.198765,54.9237318 163.201672,54.2138726 C163.203079,53.8804416 163.180943,53.56425 162.84525,53.4067627 C162.526908,53.257388 162.2519,53.3435852 161.882346,53.7519571 L161.882346,56.8535347 L160.986038,56.8535347 L160.986038,52.5420528 Z" id="Fill-17"></path>
                                <path d="M100.77334,54.1436472 C100.758708,54.1415176 100.743982,54.1393881 100.729256,54.1373599 C100.729256,53.9176078 100.745107,53.6963345 100.726536,53.4786106 C100.646153,52.5383514 99.8521752,52.0437823 99.0614801,52.4516472 C98.917598,52.5258781 98.7571141,52.6725148 98.7044011,52.8259458 C98.413354,53.6745317 98.3686136,54.5407627 98.6900504,55.3937092 C98.861227,55.8477149 99.1883853,56.0112867 99.7240507,55.9728529 C100.209254,55.9381712 100.519717,55.7059459 100.622142,55.2380473 C100.700555,54.8803796 100.724848,54.5090219 100.77334,54.1436472 M101.808184,54.1823853 C101.766445,54.5985655 101.742527,55.0179909 101.679216,55.4302163 C101.54537,56.3017205 101.039437,56.7921318 100.253244,56.9427234 C99.6636465,57.055591 99.0755495,57.0426107 98.5106198,56.7825994 C98.0819749,56.58536 97.791772,56.2332698 97.6613026,55.7673994 C97.5500613,55.3700811 97.4728677,54.9483233 97.4617061,54.5347796 C97.4473554,54.0008641 97.4605805,53.4529542 97.5565332,52.9314106 C97.7605382,51.8220021 98.235518,51.4939457 99.2692369,51.3231739 C99.5575639,51.2755119 99.8650252,51.2875795 100.154478,51.336357 C101.146552,51.5035795 101.618905,52.1133485 101.764945,53.3697993 C101.795803,53.6352866 101.769447,53.9085824 101.769447,54.1782275 C101.78239,54.1795458 101.795334,54.1810669 101.808184,54.1823853" id="Fill-19"></path>
                                <path d="M137.908068,56.0473881 C138.620819,55.402329 138.61219,53.9816979 137.897563,53.371219 C137.447157,53.2888754 137.036052,53.3372472 136.782242,53.8254275 L136.782242,55.6040304 C137.067849,56.0794332 137.453254,56.1280079 137.908068,56.0473881 M136.644456,56.6586783 C136.587241,56.7234783 136.52618,56.7926389 136.454614,56.8735628 C136.37048,56.8795459 136.277904,56.892729 136.185515,56.8909037 C136.093315,56.8890783 136.001395,56.8721431 135.915385,56.8625093 C135.792607,56.5058558 135.744302,52.3361429 135.847946,51.3033992 C136.077744,51.0243232 136.374325,51.1117372 136.728215,51.1465203 C136.744723,51.6443344 136.761138,52.1391063 136.775957,52.5820584 C137.20676,52.5278049 137.613175,52.4526612 138.022123,52.4311626 C138.530212,52.4044922 138.903237,52.71105 139.103021,53.1739796 C139.495648,54.0834106 139.503996,55.0442557 139.183779,55.976098 C138.904456,56.7887854 138.092657,57.1770783 137.312936,56.9358276 C137.090172,56.8668699 136.878288,56.7568417 136.644456,56.6586783" id="Fill-21"></path>
                                <path d="M93.8665571,53.6125914 C93.6759649,53.5258872 93.5023496,53.4050083 93.3150402,53.3697182 C92.843906,53.2810872 92.4571876,53.3764111 92.3787747,53.9808055 C92.3151814,54.4707098 92.3331901,54.977245 92.3549507,55.4742478 C92.3662999,55.7333464 92.5233134,55.9382929 92.7754354,56.059476 C93.156995,56.0806704 93.5716644,56.1689972 93.8665571,55.6992732 L93.8665571,53.6125914 Z M93.8978847,52.6654365 L93.8978847,51.2569744 C94.2046894,51.0320505 94.4782906,51.1259547 94.7371658,51.1281857 C94.8499079,51.5364561 94.8693235,56.2804451 94.761834,56.8593859 C94.5955348,56.8728732 94.4154477,56.8875775 94.2276693,56.9028901 C94.1269331,56.8135493 94.0336067,56.7308 93.9338084,56.6422704 C93.3980491,57.0184958 92.8368713,57.1087493 92.2364871,56.855938 C91.631882,56.6015042 91.4108063,56.0682986 91.359594,55.4297295 C91.3249835,54.998845 91.3155102,54.567352 91.3445868,54.1295717 C91.4455106,52.6111829 92.3092723,52.1942928 93.4999109,52.5096731 C93.6165924,52.5405012 93.7273647,52.597797 93.8978847,52.6654365 L93.8978847,52.6654365 Z" id="Fill-23"></path>
                                <path d="M72.2936185,53.7012224 C71.7663946,53.175521 71.3401884,53.2086816 70.86549,53.7772788 C70.6333464,54.4847041 70.7158863,55.0953859 70.8340685,55.5648056 C70.8909085,55.7906422 71.0035568,55.9772338 71.2209745,56.0296619 C71.6139771,56.1243774 71.9988196,56.1401972 72.2936185,55.7071831 L72.2936185,53.7012224 Z M72.4767071,56.7189352 C72.0199236,56.8227775 71.6460552,56.9646479 71.2676846,56.9810761 C70.6188081,57.0091662 70.0993693,56.6092113 69.9238781,55.9451887 C69.6977374,55.0895042 69.6739134,54.2160731 69.9523919,53.3611999 C70.1666206,52.7032618 70.5397386,52.4194195 71.1881461,52.4291548 C71.539316,52.434428 71.8898294,52.4907097 72.3070312,52.5303604 L72.3070312,51.278473 C72.6269673,51.0253575 72.9028195,51.1328505 73.1604754,51.1236223 C73.2766879,51.5151604 73.3053893,56.1972901 73.1978998,56.8565465 C73.0170623,56.8705409 72.8226245,56.8855493 72.6351275,56.9000507 C72.5550262,56.8085803 72.4932151,56.7377972 72.4767071,56.7189352 L72.4767071,56.7189352 Z" id="Fill-25"></path>
                                <path d="M127.884783,55.5516833 C128.463126,55.9019481 129.027305,56.0801228 129.629846,55.9433228 C129.785078,55.9081341 129.920237,55.7701171 130.067496,55.6774298 L130.067496,55.0385566 C129.842293,54.9137227 129.615214,54.7770241 129.379694,54.6602016 C129.082644,54.5129565 128.773776,54.3928889 128.478508,54.2416889 C127.931962,53.9615988 127.721954,53.4518185 127.755533,52.8354579 C127.790144,52.2001339 128.074438,51.724224 128.645558,51.4777001 C129.303251,51.193655 129.961976,51.2956719 130.620138,51.4589395 C130.719843,51.4835818 130.806134,51.5711987 130.955175,51.6653057 C130.910998,51.9319085 130.865976,52.2030748 130.810918,52.5346804 C130.577555,52.4770804 130.38837,52.4073114 130.194964,52.387841 C129.886564,52.35681 129.5731,52.3290241 129.266108,52.3564043 C128.991663,52.3808438 128.810169,52.6024212 128.788877,52.8337339 C128.76252,53.1179818 128.918033,53.2747593 129.132074,53.3735311 C129.461484,53.5255424 129.797834,53.6596044 130.128838,53.8077621 C130.899367,54.1525509 131.204296,54.6848439 131.123913,55.535458 C131.054598,56.2702636 130.563204,56.835413 129.805619,56.9652158 C129.164527,57.0750411 128.530377,56.9892496 127.935058,56.6811707 C127.881031,56.653182 127.838167,56.5999425 127.74409,56.5187144 C127.785173,56.2358862 127.829538,55.9313566 127.884783,55.5516833" id="Fill-27"></path>
                                <path d="M35.2743902,56.8556338 L34.4638105,56.8556338 C34.4496474,56.6979437 34.4237599,56.5384282 34.4227281,56.3788113 C34.4180384,55.6869014 34.4184135,54.9947887 34.4216026,54.3028788 C34.4232909,53.9218872 34.4294814,53.5418083 34.011154,53.384321 C33.6160878,53.2355548 33.2920248,53.3688055 32.9236903,53.859014 L32.9236903,56.8400169 L32.076718,56.8400169 C31.9618186,56.5074986 31.9144519,52.261628 32.0195028,51.297335 C32.2525843,51.0278927 32.546539,51.107904 32.8606598,51.1459322 C33.0160787,51.6375604 32.8533438,52.1533238 32.9477957,52.5847153 C33.3482082,52.5291435 33.7253594,52.4513632 34.1053246,52.4295604 C34.8653486,52.3859548 35.3061869,52.9319379 35.3424857,53.6477802 C35.3945421,54.673121 35.3472692,55.7042422 35.3399532,56.7329296 C35.3397656,56.7614254 35.310689,56.7896169 35.2743902,56.8556338" id="Fill-29"></path>
                                <path d="M111.992609,52.6323773 C112.328584,52.4917238 112.672157,52.436659 113.036177,52.4104956 C113.761684,52.3585745 114.227847,52.8815379 114.293504,53.4957689 C114.411498,54.5990929 114.319579,55.7098197 114.342652,56.8552282 L113.439684,56.8552282 C113.425427,56.6981465 113.399446,56.538631 113.398414,56.3789127 C113.393818,55.6694591 113.394287,54.9600056 113.397383,54.250552 C113.398789,53.9021126 113.395413,53.5466759 113.026985,53.4067323 C112.663527,53.2687154 112.319017,53.3120168 112.003114,53.7109576 L112.003114,56.7627437 C111.697247,56.9852338 111.417643,56.8506648 111.101084,56.8947775 C111.005413,56.3953408 111.062065,55.9252112 111.052123,55.461369 C111.041899,54.9887042 111.049872,54.5155323 111.049872,54.0425633 C111.049872,53.5695942 111.047714,53.0965238 111.050528,52.6236562 C111.053248,52.1554533 111.061033,51.6873519 111.066473,51.2385181 C111.381907,51.0518251 111.650725,51.0966477 111.990452,51.1695603 L111.990452,52.6300449 C111.985199,52.6407942 111.979947,52.6514421 111.974788,52.6621914 C111.980697,52.6522534 111.9867,52.6423153 111.992609,52.6323773" id="Fill-31"></path>
                                <path d="M117.367338,53.4789959 C117.331039,53.4546579 117.280765,53.4140945 117.225238,53.3846861 C116.662653,53.0861396 116.192363,53.2863199 116.025032,53.9374636 C115.947557,54.2390523 115.9318,54.5690354 115.939585,54.8847199 C115.970443,56.1327538 116.438295,56.1722017 117.192128,56.0373284 C117.492555,55.8402918 117.632216,55.5454974 117.619085,55.1551763 C117.61008,54.8855312 117.609611,54.614872 117.620116,54.3453284 C117.632404,54.0291368 117.569279,53.7434692 117.367338,53.4789959 M114.93241,54.6953903 C115.001818,54.2690692 115.036898,53.8317959 115.148983,53.4190635 C115.310124,52.82481 115.839223,52.4390522 116.419723,52.4257677 C116.653367,52.4204945 116.887199,52.4204945 117.12075,52.4253621 C117.883212,52.4412832 118.398431,52.8875818 118.542875,53.6866804 C118.656462,54.31521 118.703172,54.9448551 118.559196,55.5845397 C118.356035,56.4872777 117.95778,56.9619707 116.997315,56.9884383 C116.705611,56.9964496 116.401433,56.9809341 116.122017,56.8998073 C115.418176,56.6954693 115.036335,56.1529341 114.993658,55.3630636 C114.981934,55.1448326 114.99197,54.9252833 114.99197,54.7063425 C114.972085,54.7026918 114.952294,54.699041 114.93241,54.6953903" id="Fill-33"></path>
                                <path d="M158.131966,56.0774355 C158.257558,56.0774355 158.365985,56.0782467 158.474413,56.0773341 C158.990006,56.0727707 159.148614,55.9094017 159.273081,55.3719368 C159.382352,54.9002861 159.344084,54.4469903 159.267171,53.9784833 C159.180598,53.4513621 158.884955,53.2711593 158.454622,53.2541227 C158.045768,53.2379987 157.732304,53.5683875 157.672369,54.0182354 C157.652484,54.1672044 157.602491,54.3145509 157.601647,54.4629115 C157.598083,55.0497622 157.575666,55.6489847 158.131966,56.0774355 M160.337002,54.6723199 C160.290948,55.0198467 160.248928,55.3680833 160.197903,55.7147988 C160.097261,56.3993059 159.697411,56.7843538 159.097402,56.928151 C158.574305,57.0534918 158.051396,57.0492327 157.540117,56.8233961 C157.166061,56.6582017 156.935418,56.3656383 156.806731,55.9644664 C156.542603,55.1404213 156.571023,54.3029903 156.778499,53.4812776 C156.919661,52.9219086 157.29775,52.5432494 157.836886,52.4656719 C158.248929,52.406348 158.684233,52.3887029 159.091024,52.4654691 C159.883595,52.6148438 160.199779,53.2422579 160.294512,54.1612213 C160.311583,54.3276326 160.296857,54.497796 160.296857,54.6662354 C160.31027,54.6682636 160.323589,54.6702917 160.337002,54.6723199" id="Fill-35"></path>
                                <path d="M85.5919563,55.0310726 C85.2058007,54.8044247 84.8362469,54.7962106 84.4734464,55.0413149 C84.2454298,55.1953543 84.1786475,55.4330557 84.2953289,55.695298 C84.3536697,55.8263177 84.4509355,55.9370557 84.5296298,56.0555008 L85.156652,56.0555008 C85.5830458,55.8733712 85.7021659,55.5330445 85.5919563,55.0310726 M83.660897,54.5408641 C84.2246072,53.9720641 84.9221635,54.1871514 85.6051815,54.1563233 C85.6761846,53.8410444 85.5548134,53.6091233 85.3424606,53.3958613 C85.1681888,53.3471852 84.9880079,53.2967852 84.7969467,53.2434444 C84.4553439,53.3262951 84.1075506,53.4106669 83.7142665,53.5059909 C83.6712144,53.2412134 83.6298507,52.9866782 83.5864234,52.7193655 C83.8921026,52.53825 84.1944989,52.4227457 84.5305678,52.4246725 C84.7961025,52.426295 85.061731,52.4201091 85.3270782,52.4255852 C85.9903991,52.4393767 86.3776803,52.7815289 86.4862953,53.4815514 C86.5399463,53.8280641 86.56574,54.1825881 86.5715553,54.5340698 C86.5840301,55.2900698 86.575401,56.0464755 86.575401,56.85176 C86.3458836,56.8719403 86.1660779,56.88776 85.9782057,56.9041882 C85.8772819,56.8151516 85.7834865,56.7324023 85.6775915,56.6391065 C85.5797629,56.6846389 85.4793081,56.7268248 85.3825112,56.7773262 C85.0050786,56.9742614 84.6258639,57.0535628 84.2061295,56.9133149 C83.6891294,56.7405149 83.3968629,56.3681431 83.3816681,55.7770332 C83.3707878,55.3534501 83.3490273,54.9262163 83.660897,54.5408641" id="Fill-37"></path>
                                <path d="M123.647689,53.2437486 C123.488706,53.3288303 123.297926,53.4311514 123.09364,53.5404697 C123.050213,53.7570782 123.009693,53.958881 122.958762,54.2123007 C123.519752,54.2648303 124.012553,54.272943 124.515578,54.213112 C124.372821,53.4681655 124.306602,53.39505 123.647689,53.2437486 M125.406259,54.9778332 L123.015508,54.9778332 C123.010725,55.3864078 123.010725,55.3864078 123.235928,55.7860586 C123.860323,56.3062839 124.516328,55.9687966 125.186965,55.8429487 C125.215104,56.1124924 125.240804,56.3589149 125.266129,56.6009769 C124.747815,57.1348924 123.230581,57.1134952 122.657022,56.6020924 C122.394958,56.3683459 122.219748,56.0753769 122.121357,55.7288642 C121.915101,55.0037937 121.906753,54.2717261 122.108319,53.5469599 C122.299756,52.8581936 122.844895,52.4349148 123.507371,52.4246725 C123.569839,52.4236584 123.632776,52.4295401 123.694775,52.4232528 C124.869562,52.303388 125.356829,53.260988 125.404664,54.2189937 C125.415545,54.4347909 125.406259,54.651805 125.406259,54.9778332" id="Fill-39"></path>
                                <path d="M172.285361,56.0333228 C173.251079,56.1427425 173.519333,55.8685341 173.368604,55.0297847 C172.778068,54.6799256 172.302713,54.8397453 172.038867,55.5182692 C172.113997,55.6751481 172.203197,55.8615369 172.285361,56.0333228 M173.374888,54.1492551 C173.454615,53.5495255 173.36776,53.4492325 172.573032,53.2470241 C172.252533,53.3251086 171.904552,53.4097847 171.490539,53.5106861 C171.47722,53.2367818 171.464839,52.9825508 171.451427,52.7089508 C171.587899,52.6365452 171.69173,52.5587649 171.80663,52.524286 C172.374092,52.3541226 172.955623,52.3663931 173.521303,52.4898072 C174.073289,52.610179 174.324754,53.1021114 174.348297,53.6474861 C174.393413,54.6912833 174.361428,55.738934 174.361428,56.8456045 C174.126658,56.8639594 173.919933,56.8801848 173.71227,56.8964101 C173.648021,56.7610299 173.601498,56.6628665 173.552162,56.5586186 C173.022968,56.9697285 172.473984,57.1286355 171.867128,56.8520947 C171.513519,56.6908552 171.263085,56.4127932 171.205214,55.9973228 C171.126894,55.4348101 171.125581,54.8861903 171.58349,54.4615932 C171.811882,54.2496495 172.064661,54.1563537 172.352988,54.1508776 C172.693653,54.1442861 173.034505,54.1492551 173.374888,54.1492551" id="Fill-41"></path>
                                <path d="M25.6681014,54.2113374 L27.1301838,54.2113374 C27.0701548,53.5514726 26.9818933,53.4378951 26.3752248,53.2518106 C26.2150223,53.3155965 26.0278067,53.3900303 25.8495017,53.4610162 C25.7389169,53.7036866 25.5538586,53.8914951 25.6681014,54.2113374 M27.9840032,54.9765656 L25.6771995,54.9765656 C25.6633178,55.6067177 25.9694659,56.0029205 26.5223897,56.0582896 C26.7638191,56.0824248 27.0148155,56.0197543 27.2588711,55.9785825 C27.4401776,55.9479572 27.6173571,55.8882276 27.8193923,55.8354952 C27.8597243,56.1060529 27.896117,56.349636 27.9368242,56.6217149 C27.4181357,56.972791 26.8581772,57.0405318 26.2763644,56.9701544 C26.0771431,56.9461206 25.8756706,56.8979516 25.687048,56.8251403 C25.1166783,56.6050839 24.7909269,56.118729 24.711576,55.5098726 C24.6189062,54.7987965 24.5587834,54.0630782 24.834448,53.3691401 C25.053554,52.8175796 25.4425235,52.4852641 26.0038889,52.4299964 C26.2358448,52.4070781 26.4717402,52.4155964 26.7050094,52.4281711 C27.2201336,52.4557542 27.598129,52.7663683 27.8246449,53.2255458 C28.077611,53.7381655 28.1206631,54.3115289 27.9840032,54.9765656" id="Fill-43"></path>
                            </g>
                            <g id="Group-48" transform="translate(24.574391, 52.326763)">
                                <mask id="mask-4" fill="white">
                                    <use xlink:href="#path-3"></use>
                                </mask>
                                <g id="Clip-47"></g>
                                <path d="M16.8469924,-0.540659176 L16.8469924,-1.09232117 C16.3793287,-1.39725639 16.3003529,-1.39421414 15.8879346,-1.07092399 L15.8879346,-0.522912697 C16.237979,-0.235825361 16.5411257,-0.237650714 16.8469924,-0.540659176 L16.8469924,-0.540659176 Z M16.8813216,4.52915511 C16.8867617,3.05183674 16.884323,1.61214091 16.8832913,0.175385922 C16.4845671,0.0357464803 16.1836715,0.134619724 15.8948755,0.278822546 C15.7884177,1.09445075 15.8295939,4.18467059 15.950121,4.52915511 L16.8813216,4.52915511 Z M57.0541664,4.52002835 L57.9080796,4.52002835 C58.017914,3.87212973 57.9879933,-0.818822568 57.8742195,-1.183893 C57.6080281,-1.21228737 57.3327387,-1.2965578 57.0541664,-1.07579159 L57.0541664,4.52002835 Z M94.771917,0.223047896 C94.6640523,1.27485639 94.7091679,4.18507622 94.8245362,4.51292976 L95.6432762,4.51292976 C95.6559385,4.34408468 95.6716962,4.22776918 95.6722589,4.11145368 C95.674979,3.50492972 95.6640987,2.89820293 95.6763859,2.29198319 C95.6916746,1.55149865 96.0638547,1.15468737 96.7489362,1.11594934 C96.8387921,1.11087892 96.927804,1.08917751 97.0438289,1.07102539 C97.0384825,0.747431016 97.2732524,0.465718328 97.064839,0.0902028205 C96.8026809,0.108861976 96.512009,0.0760056368 96.2559476,0.162811274 C96.0069209,0.247385925 95.7934426,0.454563398 95.548449,0.618642278 C95.5065225,0.456287342 95.4661905,0.30021973 95.4113202,0.0880732429 C95.1878058,0.135228174 94.9848326,0.178022542 94.771917,0.223047896 L94.771917,0.223047896 Z M52.6223345,4.52915511 L52.6223345,3.14361139 C52.6223345,2.70481701 52.6223345,2.26612403 52.6223345,1.82743106 C52.6223345,1.37180287 52.6298381,0.916073276 52.6201772,0.460749314 C52.6107976,0.0145521133 52.66745,-0.438439454 52.5763747,-0.878349331 L51.5909604,-0.878349331 C51.5892721,-0.392501424 51.5872086,0.0573464812 51.5864582,0.507194386 C51.5857079,0.945887362 51.5862706,1.38458034 51.5862706,1.82337472 C51.5862706,2.2789015 51.578767,2.7347325 51.5884279,3.19005646 C51.5978075,3.63615226 51.5409675,4.08904242 51.6325118,4.52915511 L52.6223345,4.52915511 Z M6.7262828,0.285616913 C6.28028574,0.0456845089 5.85398572,0.0931436657 5.43528312,0.101154934 C4.73903997,0.114439441 4.2222274,0.565098614 4.03416765,1.28732963 C3.87827972,1.8855381 3.89750778,2.49875503 3.96175762,3.09736914 C4.05367709,3.95467621 4.57546082,4.51181426 5.35311836,4.64009596 C5.83222519,4.71919455 6.31245756,4.69303117 6.75179514,4.371972 C6.75179514,4.16864805 6.75592214,3.98388185 6.74954405,3.79952128 C6.74738676,3.73614099 6.71896676,3.6738762 6.70527263,3.62175226 C6.67169388,3.61120578 6.65499831,3.5994424 6.64186695,3.60289028 C6.50642642,3.63858606 6.37211142,3.67945367 6.2363895,3.71372973 C5.57916524,3.87973537 5.1387959,3.60867057 4.95064236,2.90175223 C4.80169529,2.34228178 4.85093787,1.80258599 5.10671788,1.35669301 C5.62756366,0.844985949 6.16660573,1.0339099 6.7262828,1.18784793 L6.7262828,0.285616913 Z M79.0683185,0.960997221 C79.4230526,0.92631553 79.6944027,0.899847923 80.0062723,0.869323978 C79.9948293,0.597346503 79.9854498,0.374045085 79.9754136,0.132490146 C79.6655137,0.109369018 79.4079516,0.0902028205 79.1366015,0.0699211295 C79.1992568,-0.697436647 79.8075199,-0.391791565 80.1555008,-0.577673262 L80.1555008,-1.21117188 C79.7601532,-1.21117188 79.3984782,-1.25710991 79.0515291,-1.1994085 C78.631232,-1.12943666 78.2930996,-0.895892993 78.2148743,-0.377391564 C78.1929261,-0.23197184 78.1294267,-0.0939549333 78.0913457,0.0272281701 C77.9360206,0.0906084543 77.8098658,0.142123949 77.6958106,0.188569022 L77.6958106,0.837177498 C77.8573263,0.905121163 77.9825431,0.957853559 78.1130125,1.01281694 C78.1696649,2.1901691 78.0816848,3.3499776 78.164131,4.52296919 L79.0683185,4.52296919 L79.0683185,0.960997221 Z M81.7131607,0.0652563406 C81.7830383,-0.70382538 82.3802335,-0.381245086 82.703171,-0.592884531 C82.7377815,-0.76943665 82.772392,-0.946292995 82.809535,-1.13521695 C82.7207108,-1.16908737 82.6644335,-1.20802822 82.6072184,-1.20954934 C82.3105436,-1.21806765 82.013306,-1.22891836 81.7171002,-1.21644512 C81.2541261,-1.19687329 80.8545578,-0.816794399 80.7624507,-0.327092971 C80.7385329,-0.199926769 80.7217435,-0.071138031 80.70411,0.040816903 C80.5213966,0.0911154966 80.3750758,0.131374653 80.1921748,0.181774655 C80.2058689,0.429008468 80.2181561,0.652816927 80.2293178,0.857560597 C80.4341669,0.911002853 80.5805815,0.949335249 80.772862,0.999532434 L80.772862,4.52550441 L81.6968403,4.52550441 C81.6968403,3.89981424 81.6905561,3.31316633 81.6986225,2.72672124 C81.7066889,2.14281135 81.6605415,1.55545358 81.7333268,0.95846201 C82.045384,0.926619755 82.3168278,0.898833839 82.6291665,0.866991584 C82.6180986,0.596738052 82.6089067,0.373335226 82.5990582,0.132794371 C82.2868133,0.108963385 82.0270001,0.0891887359 81.7131607,0.0652563406 L81.7131607,0.0652563406 Z M82.9239654,1.37200569 C83.0032225,2.12567332 83.3910664,2.48668742 83.9677204,2.66232687 C84.1475262,2.71708743 84.3269567,2.77925081 84.4984147,2.85865363 C84.7962151,2.99667054 84.8646857,3.14939167 84.8221026,3.55735789 C84.2534212,3.96471565 83.6769547,3.68624803 83.0987062,3.50249591 C82.9645788,3.80499733 82.9862455,4.07707622 83.0598749,4.34175229 C83.6577267,4.67650159 84.1750082,4.7245692 84.7894618,4.5938537 C85.3658344,4.47125088 85.7672787,4.03032692 85.7780651,3.26225928 C85.7851936,2.75694095 85.6514414,2.28985361 85.1250617,2.10245079 C84.8889787,2.01838318 84.6571165,1.91768458 84.4292875,1.80978599 C84.2221873,1.7116226 83.9760682,1.66629302 83.8674532,1.40394935 C83.9228862,1.01991553 84.2185293,1.01616342 84.4434506,0.932805671 C84.8084085,1.00409581 85.1539507,1.07153244 85.5172202,1.14251836 C85.5589591,0.865369048 85.5953517,0.624726785 85.6306188,0.390878889 C85.5433891,0.327701421 85.4963038,0.281459166 85.4409645,0.25560001 C84.9175863,0.0102929582 84.3625052,0.0431492975 83.8314357,0.146585921 C83.4038226,0.229842263 83.0725373,0.533560585 82.9979699,1.0567268 C82.9813681,1.17233244 82.9449755,1.2845916 82.9239654,1.37200569 L82.9239654,1.37200569 Z M54.3838118,1.45201696 C54.5064024,1.0302592 54.7705302,1.00622539 54.9871975,0.932704262 C55.3530933,1.00358877 55.6993859,1.07072117 56.0635933,1.14130145 C56.0978287,0.863746513 56.1278432,0.61985918 56.1591708,0.365932409 C56.0745674,0.313808463 56.0114431,0.26411832 55.9411904,0.23329015 C55.4440748,0.0156676063 54.9211655,0.0603887348 54.415327,0.130766202 C53.895044,0.203171839 53.5291482,0.71234369 53.4684626,1.30700287 C53.4190325,1.79122824 53.6550216,2.23407896 54.123811,2.48334094 C54.346575,2.60178602 54.5936321,2.66597757 54.8206169,2.77630997 C55.0560433,2.8905973 55.3320831,2.96229308 55.4171555,3.27290717 C55.3770111,3.59295226 55.1985185,3.74790437 54.9361728,3.73948747 C54.6281488,3.72954944 54.3200309,3.67793254 54.0148207,3.6246931 C53.8836948,3.60177479 53.7600725,3.52896352 53.5973375,3.46477197 C53.562727,3.77386494 53.533369,4.03509312 53.505887,4.28040017 C53.9657658,4.73359455 55.1622197,4.77354949 55.6699341,4.47885652 C56.0284201,4.27066496 56.2900154,3.96664241 56.2809172,3.48018605 C56.2762275,3.22808464 56.2801669,2.97567899 56.2801669,2.77590434 C55.9971862,2.27018037 56.000938,2.26105361 55.5844865,2.06097473 C55.3284251,1.93806768 55.0537922,1.86049021 54.797168,1.73880007 C54.651879,1.66984232 54.5260056,1.55281696 54.3838118,1.45201696 L54.3838118,1.45201696 Z M117.863778,0.288659166 C117.277463,0.0114084512 116.674265,0.0336169027 116.081009,0.176501415 C115.598713,0.292715505 115.301101,0.730698621 115.272962,1.22830991 C115.236007,1.88523388 115.441325,2.28579727 115.95673,2.52572968 C116.156046,2.61841701 116.370743,2.67175785 116.572497,2.75907053 C116.827339,2.86920011 117.12589,2.92984237 117.201114,3.34835506 C117.117448,3.46487338 117.016993,3.60491845 116.945709,3.70409592 C116.378997,3.83187057 115.902704,3.69882268 115.415062,3.44154943 C115.360942,3.76534663 115.318078,4.02140298 115.270992,4.30331848 C116.039739,4.73400019 116.776221,4.83774104 117.534181,4.40584243 C117.642233,4.3442875 117.756945,4.2676227 117.828792,4.16520017 C118.253123,3.56111 118.286233,2.35708742 117.27268,2.01838318 C117.034439,1.93877754 116.79573,1.85643388 116.565838,1.75279444 C116.356392,1.65828176 116.177806,1.51975781 116.253968,1.16198878 C116.422237,1.08512117 116.617425,0.995983138 116.783255,0.920231022 C117.157124,1.01089018 117.488972,1.09130709 117.863778,1.18216906 L117.863778,0.288659166 Z M-3.34546566,0.12174085 L-1.9727702,0.12174085 L-1.9727702,1.63404514 C-1.9727702,2.10691276 -1.98224353,2.5799832 -1.97014393,3.0525466 C-1.95785673,3.53525084 -2.02698393,4.02373537 -1.91714953,4.52327342 L-0.936800168,4.52327342 L-0.936800168,3.02486209 C-0.936800168,2.55199447 -0.943741027,2.07902543 -0.934830465,1.60636063 C-0.925638517,1.12416342 -0.976944593,0.637200025 -0.894029473,0.126912681 C-0.42946093,0.109064793 -0.00250433678,0.0926366234 0.428485458,0.0761070453 C0.472475494,-0.30549297 0.541977874,-0.622090166 0.2975471,-0.876219753 C-0.557210245,-0.985842293 -3.02815587,-0.938687361 -3.34546566,-0.806349328 L-3.34546566,0.12174085 Z M108.030364,3.33638886 L108.030364,0.144861978 L107.151689,0.144861978 C107.135368,0.30153804 107.11342,0.415926777 107.113045,0.530518331 C107.110231,1.42412963 107.106948,2.31784235 107.113045,3.21145365 C107.117547,3.85265931 107.413659,4.30078327 107.971366,4.5146537 C108.502248,4.71818047 109.04326,4.73227624 109.575736,4.53341426 C109.978119,4.38322834 110.29177,4.10293537 110.377218,3.62976352 C110.442406,3.26885083 110.477392,2.89759448 110.487334,2.52978602 C110.504592,1.88959444 110.494275,1.24849019 110.490523,0.607690165 C110.489585,0.461357765 110.468106,0.315025365 110.453567,0.140298597 L109.577519,0.140298597 C109.566732,0.341492971 109.551162,0.505267626 109.550318,0.669143689 C109.547316,1.2761747 109.562605,1.88371275 109.543752,2.4900339 C109.533529,2.81930715 109.468059,3.14655224 109.426883,3.48089591 C109.163693,3.58554944 108.948152,3.67134099 108.697718,3.77092409 C108.490618,3.63605085 108.283986,3.50158324 108.030364,3.33638886 L108.030364,3.33638886 Z M22.1364894,-0.877943697 C22.1348011,-0.392907058 22.1327376,0.0570422558 22.1319872,0.506991569 C22.1312369,0.945887362 22.1317996,1.38478315 22.1317996,1.82367895 C22.1317996,2.27950995 22.1243898,2.73544236 22.1339569,3.19096914 C22.1433365,3.63696352 22.0867778,4.0900565 22.1739138,4.51171286 L23.0931085,4.51171286 L23.0931085,2.35292967 C23.758493,2.34065925 24.3729466,2.3293015 25.0044709,2.31774094 L25.0044709,1.43670428 C24.3530619,1.42149301 23.738796,1.40719442 23.1391621,1.39330146 C23.0448039,0.812535244 23.0556842,0.498473259 23.1736788,0.135836625 C23.9022813,0.0348338042 24.6513313,0.18410705 25.3852802,0.051059157 L25.3852802,-0.877943697 L22.1364894,-0.877943697 Z M14.8432416,4.52885088 C14.8730686,4.44853539 14.9045838,4.40300299 14.9047714,4.35736919 C14.9096488,3.32827619 14.9316907,2.29867615 14.9055218,1.27049583 C14.8897641,0.648861998 14.3811118,0.143036625 13.8064274,0.100952117 C13.3374505,0.066676059 12.8741951,0.0854366231 12.4739702,0.371307057 C12.1229879,0.0393971847 12.0618333,0.0304732406 11.6815868,0.237650714 C11.5856341,0.778969045 11.6070195,4.14532411 11.713102,4.52094102 L12.5655145,4.52094102 L12.5655145,1.40952682 C13.0747296,0.872366232 13.5039373,0.878552148 13.9743212,1.42169583 C13.9743212,1.89608458 13.9681307,2.41752686 13.9761033,2.93886772 C13.9841697,3.46882831 13.93821,4.0036565 14.0092131,4.52885088 L14.8432416,4.52885088 Z M152.993151,1.43974654 L152.993151,4.52824243 L153.832995,4.52824243 C153.869013,4.46141426 153.897714,4.43301989 153.897902,4.40452412 C153.905124,3.34237196 153.93692,2.27930713 153.903998,1.2185747 C153.885614,0.622090166 153.364487,0.141211273 152.809312,0.1007493 C152.340429,0.0664732421 151.87783,0.086754933 151.463349,0.381447902 C151.250152,0.0501464809 150.996717,0.0433521144 150.721333,0.179847894 C150.597242,0.618033827 150.596867,4.09705368 150.718519,4.52023117 L151.574402,4.52023117 L151.574402,2.91655786 L151.574402,1.4033409 C152.081648,0.871960598 152.511324,0.879262007 152.993151,1.43974654 L152.993151,1.43974654 Z M44.5503036,4.53321145 C44.5503036,3.38709309 44.5743152,2.30871558 44.5408303,1.23246765 C44.5222588,0.634563405 44.0106988,0.139487329 43.4571184,0.103588737 C42.9904864,0.0732676085 42.5200087,0.0580563403 42.1301013,0.378000015 C41.7595157,0.0367605648 41.7253742,0.0312845083 41.3260872,0.226597192 C41.233136,0.700783126 41.2441101,4.10476073 41.3469098,4.525403 L42.1986657,4.525403 L42.1986657,1.42605639 C42.6946557,0.875915528 43.1246138,0.874597218 43.6001564,1.39776344 C43.6467727,2.41316629 43.5749254,3.47034943 43.639269,4.53321145 L44.5503036,4.53321145 Z M65.1855697,4.51536356 L66.1173331,4.51536356 C66.1173331,3.40341985 66.1566333,2.3400508 66.1040141,1.28205639 C66.0670588,0.54045636 65.5563429,0.0893915528 64.8717304,0.105921131 C64.4590307,0.115960568 64.0480193,0.209459163 63.5593453,0.27598311 C63.5441505,0.262394377 63.4505427,0.179340852 63.3241065,0.0670816928 C63.1465518,0.121030991 62.9615873,0.177312683 62.8002593,0.226292967 C62.6971782,0.978338067 62.7299127,4.16530157 62.8372147,4.5183044 L63.6902837,4.5183044 L63.6902837,1.50079443 C63.7749809,1.39360569 63.8106232,1.33671555 63.8564891,1.29219723 C64.1518508,1.00541412 64.5380064,0.929053558 64.8510954,1.09120568 C65.1800358,1.26147047 65.187258,1.5832395 65.1861325,1.91220853 C65.1839752,2.55381982 65.1855697,3.1953297 65.1855697,3.83683959 L65.1855697,4.51536356 Z M34.9113271,-0.720456367 C34.4241538,-1.03532962 33.9714035,-1.02762258 33.5194035,-1.0159606 C32.383729,-0.986856377 31.7153431,-0.396253537 31.5084305,0.699160591 C31.4162296,1.18774653 31.4367708,1.70269866 31.4207318,2.20619164 C31.4048804,2.70583109 31.5345994,3.17596069 31.7362595,3.61820296 C31.9538648,4.09543115 32.3040967,4.44356637 32.7877995,4.54669877 C33.1959033,4.63370723 33.623235,4.66838892 34.0382796,4.64597765 C34.3189154,4.63066497 34.6349121,4.59182553 34.876529,4.292772 C34.8815939,4.0276903 34.9677919,3.72488466 34.7579716,3.52419732 C34.3174147,3.56841141 33.9317281,3.64031 33.5465104,3.63736916 C33.0815667,3.63381986 32.7336796,3.3620452 32.5900789,2.88522265 C32.4294074,2.35181418 32.3988301,1.78605641 32.4839963,1.2341916 C32.5283615,0.946698629 32.6338813,0.638416927 32.7967101,0.410349312 C33.163919,-0.104197187 33.7001472,-0.0336169027 34.2178978,0.0494366217 C34.3952648,0.077830989 34.5692553,0.130867611 34.7783252,0.180557754 C34.8283181,-0.158754936 34.8690253,-0.43407889 34.9113271,-0.720456367 L34.9113271,-0.720456367 Z M131.693251,4.29368468 C131.647667,4.03752692 131.597674,3.75591564 131.553965,3.5094931 C131.092867,3.5598931 130.694612,3.63635507 130.295981,3.63868747 C129.795395,3.64152691 129.452198,3.36904239 129.345084,2.84161701 C129.259636,2.4204677 129.269953,1.97477754 129.252977,1.53932964 C129.200264,0.180557754 129.915453,-0.104602821 130.969338,0.0350366211 C131.061445,0.0473070441 131.150082,0.0882760598 131.241908,0.105718314 C131.341987,0.124783104 131.444131,0.131983104 131.560812,0.146180287 C131.597767,-0.169098598 131.630314,-0.447363398 131.665675,-0.750371861 C131.013516,-1.05155497 130.362201,-1.09891272 129.690532,-0.92895215 C128.789346,-0.700884535 128.399814,-0.0724563409 128.231826,0.779476087 C128.105015,1.42281132 128.086725,2.07588177 128.215693,2.73250152 C128.325153,3.28984238 128.471192,3.8418086 128.892802,4.19298608 C129.589702,4.77344808 130.828551,4.86765653 131.693251,4.29368468 L131.693251,4.29368468 Z M124.630271,1.82215782 C124.296359,1.82215782 123.959822,1.81495782 123.623659,1.82357754 C122.884739,1.84254092 122.383121,2.416817 122.402912,3.23356069 C122.427205,4.23507059 122.940453,4.6346199 123.663053,4.65540864 C124.017693,4.66554948 124.377492,4.58391568 124.663568,4.30757764 C124.695928,4.27634383 124.742169,4.26214665 124.781751,4.24024242 C124.836902,4.34945933 124.886895,4.44843398 124.947956,4.56911004 C125.152148,4.55653539 125.346868,4.54456919 125.514011,4.53422553 C125.552092,4.44894102 125.576854,4.41922834 125.577042,4.38931285 C125.582857,3.34440013 125.603961,2.29898037 125.583138,1.2545747 C125.572446,0.714473268 125.194356,0.216659164 124.708027,0.153380288 C124.203596,0.0877690176 123.685189,0.127115498 123.174379,0.154292964 C123.016803,0.162709866 122.864291,0.281357758 122.712343,0.348388746 C122.688144,0.649166223 122.615359,0.912118346 122.788223,1.15326765 C123.188542,1.07132962 123.568038,0.993752152 123.922585,0.921245107 C124.616295,1.13754934 124.647529,1.17679441 124.630271,1.82215782 L124.630271,1.82215782 Z M121.882348,2.64792687 C121.964325,2.08906487 121.958697,1.6324226 121.819505,1.16979723 C121.665962,0.659509885 121.345838,0.332873253 120.901154,0.168591556 C120.673794,0.0847267639 120.409948,0.109064793 120.162046,0.0988225391 C119.098501,0.0549126782 118.622489,0.907656374 118.560021,1.75512683 C118.531507,2.14108741 118.527943,2.5343494 118.561616,2.9193973 C118.624365,3.63655789 118.905939,4.22645087 119.567384,4.49092412 C119.977832,4.65510441 120.420828,4.73937484 120.855007,4.64313821 C121.190513,4.56870441 121.582859,4.60024244 121.820443,4.24500862 C121.783018,3.99686213 121.748595,3.76828747 121.709389,3.50817479 C121.4492,3.57824803 121.212649,3.68006212 120.971125,3.69720015 C120.682423,3.71768465 120.375994,3.71687339 120.101548,3.6330086 C119.715018,3.51476634 119.554721,3.17880013 119.566633,2.64792687 L121.882348,2.64792687 Z M40.4037034,4.54041145 C40.4037034,3.38668746 40.4383139,2.29228742 40.3879458,1.20245075 C40.3657163,0.719949324 40.1004629,0.285211279 39.6111324,0.171735218 C39.0290383,0.0367605648 38.4355011,0.0319943675 37.8532193,0.202664797 C37.7392579,0.236028178 37.6374899,0.318371844 37.549885,0.36714931 L37.549885,1.17679441 C38.1127511,1.08745356 38.6295637,0.768422566 39.2440173,1.11483385 C39.4349847,1.25122822 39.5616085,1.48913245 39.4421131,1.82215782 C39.1014483,1.82215782 38.7754155,1.81505923 38.449758,1.82357754 C37.8203909,1.84010712 37.318867,2.3041522 37.240923,2.93176913 C37.136435,3.77193818 37.4343291,4.3574706 38.083018,4.58127906 C38.5979547,4.75884526 39.0640239,4.63563399 39.4959517,4.30707059 C39.5321567,4.2795889 39.5749274,4.26194383 39.6145091,4.2399382 C39.6696607,4.34935792 39.7196537,4.44853539 39.7659886,4.54041145 L40.4037034,4.54041145 Z M3.40958418,2.64985363 C3.54624406,1.98471557 3.50328577,1.41145358 3.25031962,0.898833839 C3.02370997,0.439656355 2.64580836,0.129042259 2.13068411,0.101357751 C1.89741498,0.0888845106 1.6614258,0.0803662004 1.42946981,0.103284511 C0.868198224,0.158552119 0.479134966,0.490766217 0.260028946,1.04242821 C-0.0155418953,1.73636627 0.0445809466,2.47208461 0.137250787,3.18316069 C0.216601683,3.79191564 0.54225926,4.278372 1.112629,4.49832694 C1.30134531,4.57113821 1.502724,4.61930723 1.7020392,4.64344244 C2.28375818,4.7137185 2.84371663,4.64597765 3.36240511,4.29500299 C3.3217917,4.0228227 3.28539909,3.77923959 3.24497328,3.50868183 C3.04293802,3.56151563 2.86575854,3.62114381 2.68445206,3.65176916 C2.44039647,3.6930424 2.18940002,3.75571283 1.94806449,3.7314762 C1.3950469,3.6762086 1.08889876,3.28000576 1.10278048,2.64985363 L3.40958418,2.64985363 Z M148.800498,1.82256345 C148.460114,1.82256345 148.119262,1.81749303 147.778597,1.82408458 C147.49027,1.82956064 147.237491,1.92285641 147.0091,2.13480008 C146.55119,2.55949869 146.552504,3.10801702 146.630823,3.67052972 C146.688694,4.08610157 146.939128,4.36416355 147.292737,4.52530159 C147.899593,4.80184244 148.448577,4.6429354 148.977771,4.23182552 C149.027107,4.33607341 149.07363,4.4343382 149.13788,4.56971849 C149.345543,4.55339173 149.552268,4.53716638 149.787037,4.51881145 C149.787037,3.41214098 149.819022,2.36449023 149.773906,1.32069301 C149.750363,0.775419749 149.498898,0.283385927 148.946912,0.163014091 C148.381232,0.0396000016 147.799701,0.0273295786 147.232239,0.197594374 C147.117339,0.232073249 147.013508,0.309752125 146.877036,0.38225917 C146.890448,0.655757773 146.902829,0.909988769 146.916148,1.183893 C147.330161,1.083093 147.678142,0.998315533 147.998641,0.920332431 C148.793369,1.12243948 148.880224,1.22273244 148.800498,1.82256345 L148.800498,1.82256345 Z M100.831849,2.65107053 C100.831849,2.32504235 100.841135,2.10802825 100.830349,1.89223106 C100.782419,0.934225389 100.295246,-0.0233746488 99.1203649,0.0964901447 C99.0583661,0.102777469 98.9954294,0.0968957785 98.9329617,0.097909863 C98.2705787,0.108152117 97.7253461,0.531431007 97.5339097,1.22019723 C97.3324373,1.94496346 97.340785,2.67703109 97.5469473,3.40210154 C97.6454325,3.74861423 97.8205484,4.04158326 98.0827065,4.27532975 C98.6561715,4.78673258 100.173406,4.80812977 100.691719,4.27421425 C100.666488,4.03215227 100.640694,3.78572973 100.612556,3.51618606 C99.9419187,3.64203395 99.2859137,3.97952128 98.6616117,3.45970155 C98.4363151,3.05964519 98.4363151,3.05964519 98.4410987,2.65107053 L100.831849,2.65107053 Z M59.0865248,2.2141015 C58.7746552,2.59945362 58.7964157,3.02668744 58.8072959,3.45027056 C58.8224908,4.04138044 59.1147572,4.41375229 59.6316636,4.58655229 C60.0514917,4.72680019 60.4306127,4.64749878 60.8081391,4.45056356 C60.9049359,4.40006215 61.0053908,4.35787623 61.1032194,4.31234383 C61.2090206,4.40563961 61.302816,4.48838891 61.4037398,4.57742553 C61.591612,4.56099736 61.7715115,4.54517765 62.0010288,4.52499736 C62.0010288,3.71971282 62.0095642,2.96330716 61.9971832,2.20730713 C61.9913679,1.85582543 61.9655742,1.50130147 61.9118294,1.15478878 C61.8033081,0.454766215 61.416027,0.112614089 60.752706,0.0988225391 C60.4872651,0.0933464826 60.2216366,0.0995323983 59.9561956,0.097909863 C59.6201268,0.0959831024 59.3177304,0.211487332 59.0119575,0.392602833 C59.0554785,0.659915519 59.0968423,0.914450741 59.1398944,1.17922822 C59.5331784,1.08390427 59.8809717,0.999532434 60.2225745,0.916681727 C60.4136357,0.970022574 60.5938166,1.02042258 60.7680885,1.06909863 C60.9804412,1.28236061 61.1018125,1.51428175 61.0307155,1.82956064 C60.3477913,1.86038881 59.6502351,1.64530147 59.0865248,2.2141015 L59.0865248,2.2141015 Z M135.762564,2.34552685 C135.749245,2.34349868 135.735832,2.34147052 135.722513,2.33954375 C135.722513,2.17110431 135.737239,2.00083952 135.720075,1.83452965 C135.625341,0.915464825 135.309157,0.288152124 134.516586,0.138676062 C134.109795,0.0620112701 133.674585,0.0796563412 133.262542,0.138878879 C132.723406,0.216456347 132.345317,0.595216925 132.204155,1.15448455 C131.996679,1.97629867 131.968165,2.81372969 132.232387,3.63767338 C132.361074,4.03894664 132.591717,4.33140862 132.965773,4.496603 C133.476958,4.72243962 133.999867,4.72680019 134.523058,4.60145934 C135.123067,4.45756074 135.522917,4.07251284 135.623559,3.38810718 C135.674584,3.04139167 135.71651,2.69305363 135.762564,2.34552685 L135.762564,2.34552685 Z M90.358,2.36864798 C90.3778846,2.37229869 90.3976755,2.37594939 90.4175601,2.37949869 C90.4175601,2.59854095 90.4076178,2.81809025 90.4193422,3.03621984 C90.4620191,3.8261917 90.8437663,4.36872693 91.5476069,4.57306497 C91.8270233,4.65419173 92.1312956,4.66970723 92.4229054,4.66169596 C93.3833702,4.63522835 93.7816254,4.16043397 93.9847862,3.25779731 C94.1287621,2.61811278 94.082052,1.98846768 93.9684658,1.35993808 C93.8240209,0.560839459 93.3088028,0.11454085 92.5463401,0.0986197222 C92.3127896,0.0937521164 92.0789577,0.0936507079 91.8454072,0.099025356 C91.2648138,0.112208455 90.7358078,0.498067625 90.5745736,1.09232117 C90.4625819,1.50505358 90.4275024,1.94232684 90.358,2.36864798 L90.358,2.36864798 Z M10.7000181,4.52885088 C10.7363169,4.46283398 10.7653935,4.43464243 10.7655811,4.40614665 C10.7728971,3.3775607 10.82017,2.34633812 10.7681135,1.32099724 C10.7318147,0.605154954 10.2909764,0.0591718333 9.5309524,0.102777469 C9.1509873,0.124580287 8.77383606,0.20246198 8.37342356,0.257932405 C8.2789716,-0.173357753 8.4417066,-0.689222563 8.28628764,-1.18074934 C7.9720731,-1.21877751 7.67821216,-1.29889019 7.44513063,-1.02944793 C7.3400798,-0.0651549322 7.38744647,4.18081707 7.50234581,4.51323398 L8.34922435,4.51323398 L8.34922435,1.53223105 C8.71765262,1.04202258 9.04171568,0.908771867 9.43678184,1.05753807 C9.85510926,1.2150254 9.84891876,1.5952057 9.84723044,1.97609585 C9.8440414,2.66810715 9.84366622,3.36011844 9.84835599,4.05202833 C9.84938774,4.21164524 9.87518147,4.37116074 9.88943837,4.52885088 L10.7000181,4.52885088 Z M103.310392,3.22494097 C103.255147,3.60461423 103.210875,3.90904241 103.169699,4.191972 C103.263776,4.27320017 103.306641,4.32643961 103.360667,4.35442834 C103.955986,4.66250723 104.590137,4.74829878 105.231322,4.63847342 C105.988813,4.5086706 106.480207,3.94352128 106.549522,3.20871562 C106.629905,2.35800009 106.324976,1.82570711 105.554447,1.48101978 C105.223443,1.33286202 104.887093,1.19869864 104.557683,1.04668737 C104.343642,0.948016939 104.18813,0.791239468 104.214486,0.506991569 C104.235778,0.275577476 104.417272,0.0541014106 104.691717,0.029661973 C104.998709,0.00228169023 105.312173,0.0299661984 105.620573,0.061098594 C105.813979,0.0805690173 106.003164,0.150236626 106.236527,0.207938036 C106.291585,-0.123667611 106.336607,-0.394833819 106.380784,-0.661436646 C106.231837,-0.7556451 106.145452,-0.843160597 106.045747,-0.86790426 C105.387679,-1.03107046 104.72886,-1.13308737 104.071167,-0.849143696 C103.50014,-0.602518334 103.215753,-0.126608456 103.181142,0.508715513 C103.147564,1.1250761 103.357571,1.6348564 103.904117,1.91484515 C104.199385,2.06614656 104.508253,2.18621417 104.805303,2.33345925 C105.040823,2.45028179 105.267902,2.58698038 105.493199,2.71181419 L105.493199,3.35068746 C105.345846,3.44337478 105.210687,3.58139169 105.055549,3.61658043 C104.452914,3.75338043 103.888735,3.57510437 103.310392,3.22494097 L103.310392,3.22494097 Z M47.9023631,4.3922537 C47.9187773,4.41101426 47.9806822,4.48179736 48.0606897,4.5733692 C48.2482805,4.55886779 48.4427183,4.54375793 48.623462,4.52976356 C48.7309515,3.8705072 48.7023439,-0.811521159 48.5861314,-1.20316061 C48.3284755,-1.19393244 48.0526233,-1.301324 47.7325934,-1.0483099 L47.7325934,0.203577473 C47.3153916,0.164028176 46.964972,0.107645075 46.6138021,0.102371835 C45.9653008,0.0926366234 45.5922765,0.376478888 45.3779541,1.03441694 C45.0995694,1.88929022 45.1233934,2.76282264 45.3495341,3.61840578 C45.5250252,4.28252975 46.0444641,4.68238328 46.6932468,4.65429314 C47.0717112,4.63786497 47.4454858,4.49599454 47.9023631,4.3922537 L47.9023631,4.3922537 Z M69.3235407,0.338653535 C69.1529269,0.271014095 69.0421546,0.213718318 68.9254731,0.182890148 C67.7349283,-0.132490146 66.8710728,0.284400011 66.7702428,1.8027888 C66.7410724,2.2405691 66.7506395,2.67206208 66.78525,3.1029466 C66.8364623,3.74161705 67.0574442,4.2747213 67.6621431,4.52925652 C68.2625273,4.78196639 68.8236113,4.69181427 69.3593706,4.3154875 C69.4592627,4.40401708 69.5525891,4.48686778 69.6532315,4.57610722 C69.8410099,4.56079455 70.0211908,4.54609032 70.1873962,4.532603 C70.2949795,3.95366213 70.2755639,-0.790326792 70.1628218,-1.19859723 C69.9039466,-1.20082822 69.6303454,-1.29473245 69.3235407,-1.06970708 L69.3235407,0.338653535 Z M112.070131,4.33191567 C112.303869,4.43007905 112.515847,4.54010722 112.738611,4.60906497 C113.518238,4.85031569 114.330037,4.46202271 114.60936,3.64933536 C114.929577,2.71749307 114.921229,1.75664796 114.528696,0.847216935 C114.328911,0.384287339 113.955793,0.0777295806 113.447704,0.104400004 C113.03885,0.125898597 112.632434,0.201042262 112.201538,0.255295785 C112.186812,-0.187656345 112.170304,-0.682428196 112.153796,-1.1802423 C111.8,-1.2150254 111.503419,-1.30243949 111.273527,-1.02336342 C111.169883,0.00938028206 111.218281,4.17909312 111.340966,4.53574666 C111.426976,4.54538046 111.518989,4.56231567 111.611096,4.56414103 C111.703485,4.56596638 111.796155,4.55278328 111.880195,4.54680018 C111.951761,4.46587623 112.012822,4.39671567 112.070131,4.33191567 L112.070131,4.33191567 Z M-6.79966831,3.47207338 C-6.67370111,3.84434381 -6.5539244,4.19785369 -6.43780571,4.54071567 C-6.04508443,4.55856356 -5.70957834,4.62934666 -5.33514716,4.46760018 C-5.92943472,2.67784236 -6.51612486,0.910698628 -7.11031862,-0.878957781 L-8.32731375,-0.878957781 C-8.91841226,0.912422571 -9.50754108,2.69761701 -10.1125213,4.53087905 L-9.02890323,4.53087905 C-8.90209187,4.16520017 -8.78334691,3.82274381 -8.66178809,3.47207338 L-6.79966831,3.47207338 Z M77.2337745,1.85562261 C77.2209246,1.8543043 77.2079808,1.85288458 77.195037,1.85146486 C77.195037,1.58181978 77.2214873,1.308524 77.1906287,1.04303666 C77.0444955,-0.213312685 76.5722357,-0.823183131 75.5801619,-0.990405673 C75.2907093,-1.03918314 74.9831543,-1.05125075 74.6948273,-1.00358877 C73.6612021,-0.832816935 73.1861285,-0.504760583 72.9821235,0.604647911 C72.8861708,1.12619159 72.8729457,1.67410147 72.8873902,2.20801699 C72.898458,2.62156067 72.9756516,3.04331843 73.0869868,3.44063676 C73.2173624,3.9065072 73.5075653,4.25859735 73.9362102,4.4558368 C74.5012336,4.71584807 75.0892369,4.72882836 75.6788346,4.61596075 C76.4650276,4.46536919 76.9710537,3.9749579 77.1048059,3.10345364 C77.1681178,2.69122828 77.1920356,2.27180291 77.2337745,1.85562261 L77.2337745,1.85562261 Z M136.411628,0.215340854 L136.411628,4.52672131 L137.307937,4.52672131 L137.307937,1.42514372 C137.67749,1.01687328 137.952498,0.930676093 138.270934,1.08005075 C138.606628,1.23753808 138.628669,1.55362823 138.627262,1.88716064 C138.624355,2.59691841 138.624449,3.3067776 138.628013,4.01663678 C138.628763,4.17939735 138.648273,4.34205651 138.660278,4.52276638 L139.545144,4.52276638 C139.554617,4.31589313 139.568124,4.15080016 139.568687,3.9857072 C139.571219,3.27584802 139.56531,2.56598883 139.571219,1.85612965 C139.576847,1.17730146 139.807396,0.974585954 140.464995,1.06078314 C140.794499,1.27688456 140.873756,1.62867049 140.875632,2.01544233 C140.879008,2.6915325 140.874225,3.36752126 140.878633,4.04361143 C140.879759,4.20434383 140.903864,4.36497482 140.920747,4.56667624 C141.242841,4.52641708 141.521507,4.65530723 141.808427,4.45391004 C141.808427,3.49854098 141.813492,2.53718883 141.804018,1.5760395 C141.802236,1.3937071 141.750461,1.21005639 141.70891,1.03046201 C141.57497,0.45314368 141.184875,0.134923949 140.625386,0.0941577502 C140.126207,0.057752115 139.666422,0.150743668 139.296399,0.501008471 C138.602688,-0.082292961 137.923141,0.00410704242 137.233557,0.378608466 C137.151205,0.279633814 137.081139,0.195363388 136.981341,0.0752957776 C136.800035,0.119814089 136.611506,0.166157753 136.411628,0.215340854 L136.411628,0.215340854 Z M28.3338319,2.87487899 C27.7642125,1.57593809 27.4153875,0.281560575 26.8767206,-0.872670457 L25.8577275,-0.872670457 C25.7535208,-0.326078886 25.769466,4.12565087 25.8745169,4.52388187 L26.6374485,4.52388187 L26.6374485,1.24270991 C26.6626795,1.24027611 26.6879105,1.23774089 26.7131414,1.23520568 C27.1196506,2.32494094 27.5261598,3.41457478 27.9419548,4.52874948 L28.6724332,4.52874948 C29.0620592,3.48657479 29.4496218,2.44977475 29.8372781,1.4129747 C29.8699189,1.41956625 29.9025597,1.42605639 29.9352943,1.43254654 L29.9352943,4.52753257 L30.7868626,4.52753257 C30.8910693,4.04736354 30.8876926,-0.42556058 30.7827356,-0.87905919 L29.7487353,-0.87905919 C29.2889503,0.340884521 28.8315102,1.55454091 28.3338319,2.87487899 L28.3338319,2.87487899 Z M16.0196234,-51.5836922 C15.9141035,-51.097033 15.918043,-14.0769639 16.0146522,-13.6592625 C16.4209738,-13.5519724 22.0634228,-13.5556231 22.4489218,-13.6635217 C22.5442179,-14.1093132 22.5401847,-51.128571 22.4363532,-51.5836922 L16.0196234,-51.5836922 Z M87.418265,0.305594378 L87.416014,0.303261984 L87.416014,-1.15722258 C87.0763809,-1.23013526 86.8075633,-1.2749578 86.4920356,-1.08816342 C86.4866893,-0.639431011 86.4789043,-0.171329584 86.4761842,0.296873251 C86.4732765,0.769740876 86.4755276,1.24281132 86.4755276,1.71578035 C86.4755276,2.18874938 86.467555,2.66192123 86.4776849,3.13468745 C86.487721,3.59842831 86.4309748,4.06865932 86.5267399,4.56799455 C86.8432993,4.52388187 87.1228096,4.65845089 87.4287701,4.43596074 L87.4287701,1.3841747 C87.744673,0.985233842 88.0891834,0.941932432 88.4526406,1.07994934 C88.8210688,1.21989301 88.8244455,1.57532964 88.8229447,1.92376909 C88.8199433,2.63322264 88.8194743,3.34267619 88.8240703,4.05212974 C88.825102,4.21184805 88.8510834,4.37136355 88.8652465,4.52844525 L89.7682146,4.52844525 C89.745141,3.38303675 89.8371542,2.27230995 89.7191596,1.16898596 C89.6535029,0.554754952 89.1873398,0.0317915506 88.4617387,0.0838140878 C88.0978126,0.109876061 87.7542401,0.164940852 87.418265,0.305594378 L87.418265,0.305594378 Z" id="Fill-46" fill="#FFFFFF" mask="url(#mask-4)"></path>
                            </g>
                            <g id="Group-99" transform="translate(14.444489, 51.008453)" fill="#FFFFFF">
                                <path d="M49.589592,4.7444554 C49.5991591,4.5861568 49.6130408,4.45412299 49.6130408,4.32198778 C49.612947,4.22443284 49.5945631,4.1267765 49.585934,4.04493988 C49.0884432,3.72864691 48.7123238,3.78624691 48.3192273,4.24714834 C48.3264495,4.49296243 48.2050783,4.82010611 48.4998772,4.98621316 C48.7840772,5.1462357 49.0998863,5.12007232 49.3837111,4.93053991 C49.4608109,4.87902442 49.5246856,4.80398216 49.589592,4.7444554 M50.5336425,5.8587315 L49.8958339,5.8587315 C49.849499,5.76685544 49.7995999,5.66767797 49.7443544,5.55815684 C49.7048665,5.58026388 49.6620958,5.59790895 49.6258908,5.62539065 C49.1939631,5.95395404 48.7278,6.07716531 48.2129571,5.89959911 C47.5642682,5.67579065 47.2663741,5.09025823 47.3707684,4.25008918 C47.4488061,3.62247226 47.95033,3.15842717 48.5796033,3.14189759 C48.9053547,3.13337928 49.2312936,3.14047787 49.5720523,3.14047787 C49.6914538,2.80745251 49.5649238,2.56954827 49.3739564,2.4331539 C48.7595028,2.08674262 48.2425965,2.40577362 47.6798242,2.49501306 L47.6798242,1.68536795 C47.7673352,1.6366919 47.8691032,1.55434823 47.9831584,1.52088344 C48.5653464,1.35031442 49.1589774,1.35508062 49.7410715,1.49005527 C50.2303083,1.60342992 50.4955616,2.03816797 50.5177911,2.5207708 C50.5681592,3.61060747 50.5336425,4.70500751 50.5336425,5.8587315" id="Fill-49"></path>
                                <path d="M129.678348,3.20758999 C130.173775,3.25829421 130.669484,3.26539281 131.173353,3.20302661 C131.063518,2.47339277 131.009117,2.41092517 130.369526,2.25009136 C130.215796,2.31124066 130.041993,2.38040122 129.899424,2.43708855 C129.667843,2.83207448 129.667843,2.83207448 129.678348,3.20758999 M132.012259,3.96622664 L129.69645,3.96622664 C129.684538,4.4970999 129.844835,4.83306611 130.231366,4.95130837 C130.505905,5.03517316 130.812334,5.03598443 131.101036,5.01549992 C131.342559,4.99836189 131.579111,4.8965478 131.8393,4.82647456 C131.878506,5.08658724 131.912929,5.3151619 131.950354,5.56330839 C131.712676,5.91854221 131.320424,5.88700418 130.984918,5.96143798 C130.550739,6.05767461 130.107743,5.97340418 129.697295,5.80922389 C129.035756,5.54475064 128.754182,4.95485766 128.691527,4.23769707 C128.657854,3.85264917 128.661418,3.45938718 128.689932,3.0734266 C128.7524,2.22595614 129.228412,1.37321245 130.291957,1.41712231 C130.539859,1.42736456 130.803705,1.40302653 131.031065,1.48689133 C131.475749,1.65117302 131.795873,1.97780966 131.949416,2.488097 C132.088608,2.95072237 132.094236,3.40736464 132.012259,3.96622664" id="Fill-51"></path>
                                <path d="M134.759788,4.02365424 C134.176381,3.72885987 133.827743,3.80227959 133.48342,4.27271341 C133.48342,4.40444299 133.44487,4.57105708 133.493832,4.69852751 C133.546263,4.83502329 133.66679,5.01116978 133.782346,5.03621766 C134.153964,5.11683739 134.527082,5.10507401 134.759788,4.68737258 L134.759788,4.02365424 Z M134.760163,3.14048801 C134.777422,2.4950232 134.746188,2.45587953 134.052477,2.2395753 C133.69793,2.31208235 133.318434,2.38965981 132.918116,2.47149644 C132.745251,2.23034713 132.818036,1.96749642 132.842235,1.66661753 C132.994184,1.59968795 133.146695,1.48093865 133.304271,1.47262316 C133.815081,1.44544569 134.333488,1.40609921 134.83792,1.47160907 C135.324342,1.53488795 135.702338,2.03280346 135.713031,2.57290489 C135.733853,3.61731057 135.712749,4.66273033 135.706934,5.70764304 C135.706746,5.73755854 135.681984,5.76727122 135.643903,5.85255573 C135.476854,5.86289939 135.282041,5.87486559 135.077848,5.88733883 C135.016787,5.76676417 134.966794,5.66768811 134.911643,5.55857262 C134.872061,5.58047684 134.82582,5.59467403 134.793461,5.62580642 C134.507385,5.90224587 134.147586,5.98387967 133.792945,5.97363742 C133.070346,5.9529501 132.557097,5.55329938 132.532804,4.55178948 C132.513013,3.73504578 133.014725,3.16087111 133.753551,3.14190773 C134.089714,3.13328801 134.426252,3.14048801 134.760163,3.14048801 L134.760163,3.14048801 Z" id="Fill-53"></path>
                                <path d="M141.823115,5.61197431 C140.958415,6.18594616 139.719566,6.09173771 139.02276,5.51127571 C138.601056,5.16009823 138.45511,4.60823342 138.345651,4.05079115 C138.216683,3.3941714 138.234879,2.74110095 138.361784,2.09776572 C138.529772,1.24583329 138.91921,0.617506503 139.820396,0.389438889 C140.492159,0.21937691 141.14338,0.266836067 141.795539,0.567917769 C141.760178,0.870926232 141.727631,1.14919103 141.69077,1.46457133 C141.574088,1.45027273 141.471945,1.44307273 141.371772,1.42400794 C141.279946,1.40656569 141.191403,1.36559667 141.099202,1.35332625 C140.045411,1.21368681 139.330221,1.49884738 139.382841,2.85761927 C139.399818,3.29306717 139.389594,3.73875733 139.475041,4.15990664 C139.582062,4.68733202 139.925353,4.95981654 140.425939,4.9569771 C140.824569,4.9546447 141.222825,4.87818273 141.683923,4.82788414 C141.727538,5.07420527 141.777624,5.35581655 141.823115,5.61197431" id="Fill-55"></path>
                                <path d="M45.0412005,0.597802841 C44.9988988,0.884180317 44.9582854,1.15960568 44.9081987,1.49891837 C44.6991287,1.44912682 44.5251383,1.3961916 44.3477712,1.36769583 C43.8300207,1.28474371 43.2938863,1.21406202 42.9265836,1.72870993 C42.7637548,1.95677754 42.6583288,2.26495784 42.6139635,2.55255221 C42.5287035,3.10441702 42.5592808,3.67007339 42.7199523,4.20348186 C42.8636469,4.68030441 43.2115339,4.95207907 43.6763839,4.95562837 C44.0616015,4.95856921 44.4472881,4.88667062 44.8878451,4.84245653 C45.0976653,5.04324527 45.0114674,5.34605092 45.0064024,5.61113262 C44.7648793,5.91008474 44.4488827,5.94902559 44.1681531,5.96423686 C43.7531085,5.98674953 43.3257767,5.95206784 42.917673,5.86495798 C42.434064,5.76182558 42.083832,5.41379176 41.8661329,4.93656358 C41.6645666,4.4942199 41.5347538,4.0240903 41.5506991,3.52445084 C41.5666443,3.02095787 41.5461031,2.50600573 41.6383977,2.01752121 C41.8452166,0.922107079 42.5136025,0.331504239 43.6493708,0.302298604 C44.101277,0.29073804 44.5540273,0.283030997 45.0412005,0.597802841" id="Fill-57"></path>
                                <path d="M75.3154526,5.83366333 L75.3154526,5.15513936 C75.3154526,4.51362948 75.313858,3.87211959 75.3160153,3.23060971 C75.3171409,2.90153927 75.3099186,2.57987165 74.9809782,2.40950545 C74.6678892,2.24735333 74.2817336,2.3237139 73.9864657,2.61049701 C73.940506,2.65501532 73.9048638,2.71190546 73.8202603,2.8190942 L73.8202603,5.83660418 L72.9670975,5.83660418 C72.8597956,5.48360134 72.827061,2.29663784 72.9301421,1.54459274 C73.0914702,1.49561245 73.2764347,1.43933076 73.4539893,1.38538146 C73.5804255,1.49764062 73.6740333,1.58079556 73.6892282,1.59428288 C74.1779021,1.52786034 74.5889135,1.43426034 75.0016132,1.42432231 C75.6863195,1.40769132 76.1969416,1.85875613 76.233897,2.60035616 C76.2865162,3.65835057 76.2473097,4.72171962 76.2473097,5.83366333 L75.3154526,5.83366333 Z" id="Fill-59"></path>
                                <path d="M54.6802333,5.8514808 L53.7691988,5.8514808 C53.7048551,4.78861878 53.7767024,3.73153705 53.7300861,2.71603278 C53.2544497,2.19286657 52.8245854,2.19418488 52.3285954,2.74432574 L52.3285954,5.84367234 L51.4767458,5.84367234 C51.3740398,5.42303007 51.3630658,2.01905247 51.456017,1.54496795 C51.8552101,1.34955386 51.8894455,1.35502991 52.2599372,1.69626936 C52.6499384,1.3764271 53.1204161,1.39153696 53.5870481,1.42185808 C54.1406285,1.45775668 54.6521885,1.95293416 54.67076,2.550737 C54.704245,3.62698493 54.6802333,4.70536244 54.6802333,5.8514808" id="Fill-61"></path>
                                <path d="M163.12309,2.75803617 C162.64117,2.19755164 162.211493,2.19025023 161.704341,2.72173194 L161.704341,4.23484749 L161.704341,5.8385208 L160.848459,5.8385208 C160.726712,5.41544472 160.727181,1.93632346 160.851179,1.49813752 C161.126656,1.36164174 161.380091,1.36843611 161.593194,1.69973753 C162.007676,1.40504456 162.470368,1.38476287 162.939251,1.41903893 C163.494426,1.4595009 164.015553,1.9403798 164.033937,2.53686433 C164.06686,3.59759676 164.035063,4.66066159 164.027841,5.72281375 C164.027653,5.75141093 163.998952,5.77970389 163.96284,5.84653206 L163.12309,5.84653206 L163.12309,2.75803617 Z" id="Fill-63"></path>
                                <path d="M24.973162,5.84713037 L24.1391334,5.84713037 C24.0681303,5.32193599 24.1140901,4.7871078 24.1059299,4.25714721 C24.0979572,3.73590775 24.1042415,3.21436407 24.1042415,2.73997532 C23.6338577,2.19683164 23.20465,2.19064572 22.6953411,2.72780631 L22.6953411,5.83922051 L21.8429286,5.83922051 C21.7369398,5.46370501 21.7155545,2.09724853 21.8115071,1.55603161 C22.1917536,1.34885414 22.2529082,1.35767667 22.6038906,1.68958655 C23.0041155,1.40381752 23.4673709,1.38495555 23.9363478,1.41923161 C24.5110321,1.46131611 25.0196845,1.96714149 25.0354421,2.58877531 C25.0615172,3.61695564 25.0395691,4.64665709 25.0346918,5.67564868 C25.0344104,5.72138389 25.0028951,5.76681488 24.973162,5.84713037" id="Fill-65"></path>
                                <path d="M32.2663441,0.440345933 L35.5151348,0.440345933 L35.5151348,1.36934879 C34.781186,1.50249809 34.0322298,1.35312343 33.3036273,1.45422766 C33.1856327,1.81676289 33.1747524,2.13082487 33.2690168,2.71159109 C33.8686507,2.72558546 34.4830104,2.73978264 35.1344194,2.75499391 L35.1344194,3.63603057 C34.5028013,3.64759113 33.8883477,3.65894888 33.223057,3.6712193 L33.223057,5.83000249 L32.3038622,5.83000249 C32.2167263,5.40834613 32.2731912,4.95525315 32.2639054,4.50925877 C32.2542445,4.05373199 32.2617481,3.59779958 32.2617481,3.14196858 C32.2617481,2.70307278 32.2610916,2.26417699 32.2618419,1.8252812 C32.2625923,1.37533189 32.2647496,0.925382572 32.2663441,0.440345933" id="Fill-67"></path>
                                <path d="M118.160293,4.65468864 C118.413916,4.81988301 118.620454,4.95435062 118.827554,5.08922386 C119.077987,4.98964076 119.293623,4.90384921 119.556813,4.79919568 C119.597989,4.46485201 119.663364,4.13760692 119.673682,3.80833367 C119.692535,3.20201252 119.677246,2.59447447 119.680248,1.98744346 C119.681092,1.8236688 119.696662,1.65979274 119.707448,1.45859837 L120.583497,1.45859837 C120.597942,1.63342654 120.619515,1.77965754 120.620453,1.92598994 C120.624204,2.56678996 120.634522,3.20789421 120.61717,3.84808579 C120.607321,4.21589425 120.572336,4.5871506 120.507148,4.9480633 C120.421606,5.42123514 120.108048,5.70152811 119.705666,5.85171404 C119.17319,6.05057602 118.632084,6.03648024 118.101296,5.83295347 C117.543589,5.61908304 117.247477,5.17095908 117.242975,4.52975342 C117.236784,3.63614212 117.240067,2.7424294 117.242975,1.8488181 C117.24335,1.73422655 117.265298,1.61983781 117.281618,1.46316175 L118.160293,1.46316175 L118.160293,4.65468864 Z" id="Fill-69"></path>
                                <path d="M6.7844547,1.44002034 L6.7844547,0.51203157 C7.10176448,0.379592128 9.57271011,0.332437196 10.4274675,0.442059736 C10.6718982,0.696290732 10.6023958,1.01288793 10.558312,1.39438653 C10.127416,1.41091611 9.70036563,1.42734428 9.23589088,1.44519217 C9.15288197,1.95547951 9.20418804,2.44244291 9.19508989,2.92464012 C9.18608553,3.39730492 9.19312019,3.87027396 9.19312019,4.34314158 L9.19312019,5.84155291 L8.21277082,5.84155291 C8.10293642,5.34211627 8.17206362,4.85363174 8.15977643,4.37082609 C8.14767682,3.8983641 8.15705636,3.42519225 8.15705636,2.95232462 L8.15705636,1.44002034 L6.7844547,1.44002034 Z" id="Fill-71"></path>
                                <path d="M127.993698,1.60698936 L127.993698,2.50049925 C127.618892,2.40963728 127.287044,2.32922037 126.913082,2.23856122 C126.747345,2.31431333 126.552157,2.40345136 126.383888,2.48031897 C126.307633,2.838088 126.486313,2.97651054 126.695758,3.07112463 C126.92565,3.17476407 127.16436,3.25710774 127.4026,3.33671337 C128.416153,3.67541761 128.382949,4.87944019 127.958713,5.48353036 C127.886772,5.58585149 127.772154,5.66261769 127.664008,5.72417262 C126.906047,6.15607123 126.16966,6.05222897 125.400819,5.62164867 C125.447904,5.33973317 125.490769,5.08367682 125.544982,4.75987963 C126.032625,5.01715288 126.508917,5.15020077 127.075629,5.02242612 C127.146914,4.92324865 127.247369,4.78310216 127.331034,4.66668526 C127.25581,4.24817256 126.957259,4.18753031 126.702324,4.07729932 C126.500664,3.99008805 126.285966,3.9367472 126.086651,3.84405987 C125.571245,3.60412747 125.365833,3.20356407 125.402882,2.5466401 C125.431021,2.04892741 125.728634,1.6110457 126.21093,1.49483161 C126.804092,1.35184569 127.407383,1.32973864 127.993698,1.60698936" id="Fill-73"></path>
                                <path d="M64.5137321,2.77035729 C64.6559259,2.87105589 64.7817056,2.98808125 64.9270884,3.0571404 C65.1837126,3.17883055 65.4583455,3.25630661 65.7143131,3.37931506 C66.1308584,3.57939395 66.1271066,3.58852071 66.4099934,4.09414326 C66.4099934,4.29391792 66.4061478,4.54632356 66.4108376,4.79852639 C66.4199358,5.28498275 66.1583404,5.58900529 65.7997607,5.79719685 C65.29214,6.09178841 64.0955923,6.05183348 63.6358073,5.5986391 C63.6632894,5.35333204 63.6926473,5.09220527 63.7272578,4.78301089 C63.8899928,4.84720245 64.0136151,4.92001372 64.1447411,4.94293203 C64.4498575,4.99627287 64.7579753,5.04778837 65.0660932,5.0577264 C65.3284389,5.06624471 65.5069315,4.91119118 65.5470759,4.59124751 C65.4620035,4.28063341 65.1859637,4.20893763 64.9505372,4.0946503 C64.7234586,3.9843179 64.4764954,3.92012635 64.2537313,3.80157987 C63.7848482,3.55231789 63.5489528,3.10946717 63.598383,2.62524179 C63.6590686,2.03068402 64.0249644,1.52151217 64.5451536,1.44910654 C65.0510859,1.37862766 65.5739952,1.33400794 66.0711107,1.55163048 C66.1413635,1.58235725 66.2044878,1.6321488 66.2890912,1.68427274 C66.2577635,1.93809811 66.227749,2.18198544 66.1935137,2.45964179 C65.8293062,2.38896009 65.4830137,2.32192911 65.1171179,2.25094319 C64.9004505,2.32456573 64.6363227,2.34849812 64.5137321,2.77035729" id="Fill-75"></path>
                                <path d="M93.0539045,2.69029532 C93.0749147,2.60288123 93.1112135,2.49062207 93.1278152,2.37501643 C93.2024764,1.85185021 93.5336679,1.54813189 93.9613748,1.46487555 C94.4924443,1.36143893 95.0475254,1.32858259 95.5709036,1.57388964 C95.6262429,1.5997488 95.6733282,1.64609246 95.7604641,1.70916852 C95.7251971,1.94301642 95.6888982,2.18365868 95.6470655,2.46080799 C95.283796,2.38992348 94.9383476,2.32248685 94.5732959,2.2510953 C94.3484684,2.33445305 94.0527315,2.33820516 93.9973923,2.72223898 C94.1060073,2.98458265 94.3521264,3.02991223 94.5592266,3.12807562 C94.7870556,3.23597421 95.018824,3.33667281 95.2550008,3.42074042 C95.7812867,3.60814324 95.9151327,4.07523058 95.9080043,4.58065032 C95.897124,5.34861655 95.4956797,5.78954051 94.9194009,5.91214333 C94.3049473,6.04296024 93.787572,5.99479122 93.1897202,5.66004192 C93.1160908,5.39536585 93.0945179,5.12328696 93.2285515,4.82078554 C93.8068,5.00453766 94.3833603,5.28300528 94.9519479,4.87564752 C94.994531,4.4676813 94.9261542,4.31496017 94.62826,4.17704467 C94.4568959,4.09754044 94.2774653,4.03547847 94.0976595,3.9807179 C93.5209117,3.80497705 93.1331616,3.44396295 93.0539045,2.69029532" id="Fill-77"></path>
                                <path d="M91.8430811,1.38357639 C92.1569205,1.40750879 92.4166399,1.42728344 92.7288847,1.45111442 C92.738827,1.69165528 92.7479252,1.9150581 92.7590868,2.18531164 C92.4467482,2.21715389 92.1753044,2.24493981 91.8632471,2.27678206 C91.7903681,2.87377364 91.8366092,3.46113141 91.8285428,4.04504129 C91.8204764,4.63148638 91.8267607,5.21813429 91.8267607,5.84372305 L90.9027824,5.84372305 L90.9027824,2.31785249 C90.7105018,2.2676553 90.5639934,2.22932291 90.3592381,2.17588065 C90.3480765,1.97113698 90.3357893,1.74722711 90.3220951,1.4999933 C90.5049023,1.44969471 90.6513169,1.40943555 90.8340303,1.35913696 C90.8516639,1.24718202 90.8683595,1.11839328 90.8922773,0.991227082 C90.9844781,0.501525654 91.3839527,0.121446765 91.8470205,0.101874934 C92.1432263,0.0894016937 92.4404639,0.100252398 92.7370449,0.108770709 C92.7943539,0.110291835 92.8506311,0.149232682 92.9393616,0.183103106 C92.9023124,0.372027057 92.8677019,0.548883402 92.8330914,0.725435522 C92.5100601,0.937074967 91.9129587,0.614494672 91.8430811,1.38357639" id="Fill-79"></path>
                                <path d="M89.1982201,2.27931727 L89.1982201,5.84128925 L88.2940326,5.84128925 C88.2114926,4.66829765 88.2995665,3.50848915 88.2429141,2.33113699 C88.1124447,2.27617361 87.9872279,2.22344122 87.8257122,2.15549755 L87.8257122,1.50688907 C87.9397674,1.460444 88.0659222,1.40892851 88.2212473,1.34554822 C88.2593283,1.22436512 88.3228277,1.08634821 88.3447759,0.940928488 C88.4230012,0.422427059 88.7611336,0.188883388 89.1814307,0.118911554 C89.5283798,0.0611087348 89.8900548,0.107148173 90.2854024,0.107148173 L90.2854024,0.74064679 C89.9374215,0.926528488 89.3291584,0.620883405 89.2665031,1.38824118 C89.5378532,1.40852287 89.7954153,1.42768907 90.1053152,1.4508102 C90.1153513,1.69226373 90.1247309,1.91566655 90.1361739,2.18764403 C89.8243043,2.21806657 89.5529542,2.24463558 89.1982201,2.27931727" id="Fill-81"></path>
                                <path d="M16.8561938,1.60391668 L16.8561938,2.50614771 C16.2965167,2.35220967 15.7574746,2.16328572 15.2366289,2.67509419 C14.9808488,3.12088576 14.9316063,3.66058155 15.0805533,4.220052 C15.2687069,4.92697034 15.7090762,5.19803514 16.3663005,5.0320295 C16.5020224,4.99775344 16.6363374,4.95688583 16.7717779,4.92119005 C16.7849093,4.91774217 16.8015111,4.92950555 16.8351836,4.94005203 C16.8487839,4.99217597 16.8772977,5.05444076 16.879455,5.11782105 C16.8858331,5.30218162 16.8817061,5.48704923 16.8817061,5.69027178 C16.4422747,6.01133094 15.9621362,6.03749432 15.4830293,5.95839573 C14.7053718,5.83011403 14.1834943,5.27297598 14.0915748,4.41566891 C14.0274188,3.8170548 14.0081907,3.20383787 14.1639848,2.6056294 C14.3521384,1.88339838 14.8689509,1.43273921 15.5651941,1.4194547 C15.9838967,1.41154484 16.4101967,1.36398428 16.8561938,1.60391668" id="Fill-83"></path>
                                <path d="M62.7522736,5.84742446 L61.7624509,5.84742446 C61.6708128,5.40731176 61.7277466,4.95442161 61.7182732,4.50832581 C61.7087061,4.05300185 61.7162097,3.59727226 61.7162097,3.14164407 C61.7162097,2.70295109 61.7155532,2.26415671 61.7163035,1.82546373 C61.7170539,1.37561583 61.7192112,0.925767924 61.7208057,0.439920017 L62.70622,0.439920017 C62.7973891,0.879931303 62.7406429,1.33282146 62.7501163,1.77901866 C62.7596834,2.23434262 62.7522736,2.69007222 62.7522736,3.14570041 C62.7522736,3.58449479 62.7522736,4.02318777 62.7522736,4.46188074 L62.7522736,5.84742446 Z" id="Fill-85"></path>
                                <path d="M104.9018,1.54132739 C105.114809,1.49640344 105.317782,1.45350766 105.541203,1.40635273 C105.596073,1.61849922 105.636405,1.77456683 105.678332,1.93692177 C105.923419,1.7729443 106.136804,1.56566541 106.38583,1.48119217 C106.641892,1.39428513 106.932564,1.42714147 107.194722,1.40848231 C107.403135,1.78409923 107.168365,2.0657105 107.173712,2.38930488 C107.057687,2.407457 106.968675,2.42915841 106.878819,2.43433024 C106.193738,2.47306827 105.821557,2.86987955 105.806363,3.61026268 C105.793982,4.21648242 105.804862,4.82320921 105.802142,5.42973317 C105.801579,5.54615008 105.785821,5.66246558 105.773159,5.83131065 L104.954513,5.83131065 C104.839051,5.50335571 104.794029,2.59323729 104.9018,1.54132739" id="Fill-87"></path>
                                <path d="M67.1840586,5.83836868 L67.1840586,0.242548742 C67.4626309,0.0217825361 67.7379204,0.106052962 68.0041117,0.134345921 C68.1178855,0.499517766 68.1478062,5.19047007 68.0379718,5.83836868 L67.1840586,5.83836868 Z" id="Fill-89"></path>
                                <path d="M27.0112419,5.84747516 L26.0800413,5.84747516 C25.9595143,5.50299064 25.9183381,2.4127708 26.0247958,1.5971426 C26.3135918,1.45293978 26.6144874,1.35406653 27.0132116,1.49370597 C27.0142434,2.93046096 27.016682,4.37015679 27.0112419,5.84747516" id="Fill-91"></path>
                                <path d="M26.976894,0.777650735 C26.6710273,1.0806592 26.3678806,1.08248455 26.0178362,0.795397215 L26.0178362,0.247385925 C26.4302545,-0.0759042284 26.5092303,-0.078946482 26.976894,0.225988741 L26.976894,0.777650735 Z" id="Fill-93"></path>
                                <path d="M1.7768035,3.71051508 C1.91927869,2.92470096 2.17646564,2.23299389 2.38722387,1.42821639 L3.04351018,3.71051508 L1.7768035,3.71051508 Z M3.01959235,0.439382553 L1.80259723,0.439382553 C1.21149871,2.2306615 0.622369899,4.01595734 0.0173896644,5.84921939 L1.10100775,5.84921939 C1.22781911,5.48343909 1.34656407,5.14108415 1.46812289,4.79041371 L3.33024267,4.79041371 C3.45620987,5.16258274 3.57598658,5.51609261 3.69210526,5.85905601 C4.08473275,5.8769039 4.42033263,5.947687 4.79476381,5.78594051 C4.20047625,3.99608129 3.61378612,2.22893755 3.01959235,0.439382553 L3.01959235,0.439382553 Z" id="Fill-95"></path>
                                <path d="M97.5518115,1.62392457 C97.5455115,1.6338626 97.5391115,1.64380063 97.5328115,1.65373866 C97.5383115,1.64298936 97.5439115,1.63234147 97.5495115,1.62159218 L97.5518115,1.62392457 Z" id="Fill-97"></path>
                            </g>
                        </g>
                    </g>
                </g>
                <text id="A-TechnipFMC-and-Isl" font-family="Helvetica" font-size="11" font-weight="normal" fill="#FFFFFF">
                    <tspan x="142" y="10">A TechnipFMC</tspan>
                    <tspan x="142" y="23">and Island Offshore</tspan>
                    <tspan x="142" y="36">Subsea Company</tspan>
                </text>
            </g>
        </g>
    </g>
</svg>