<svg id="Layer_1" data-name="Layer 1" xmlns="http://www.w3.org/2000/svg" viewBox="0 0 354.33 208"><defs><style>.cls-1{fill:#03ade7;}</style></defs><title>Achieving together_icon</title><path class="cls-1" d="M195.42,163.5l-2-4a35.93,35.93,0,0,0,9.77-7.48C192.63,136,192.6,120,203.11,104c-13.4-15.08-38-15.4-51.83,0,10.5,16,10.49,32,0,48.11a36.67,36.67,0,0,0,9.31,7.22l-2.1,3.94a40.76,40.76,0,0,1-10.26-7.76,41.2,41.2,0,0,1-10.81,8l-2.05-4a36,36,0,0,0,9.79-7.46c-10.52-16-10.57-32,0-48.19-8.94-9.07-19.8-13.15-32.45-10.63C97.87,96.18,88,105.33,84.76,120.07c-3.78,17.06,3,30.06,17.67,39.37l-1.94,3.66c-9-4.13-19.2-15.31-21-30.13a39.95,39.95,0,0,1,68.65-32.45c7.95-8.08,17.58-12.45,29-12.47s21,4.32,29,12.33c14.2-12.94,30.14-16.56,47.45-7.73,15.15,7.73,22.32,21,21.5,37.95a38.63,38.63,0,0,1-21.61,32.82l-2-3.81c1.55-1,3.11-1.88,4.52-2.95,10.23-7.71,15.16-18,14.57-30.79a35.22,35.22,0,0,0-30.35-32.94c-11.72-1.6-21.84,2-30.29,10.29a1.08,1.08,0,0,0-.15,1.69,39.74,39.74,0,0,1,.84,45c-.43.67-.9,1.32-1.48,2.18,1.48,1.32,2.9,2.71,4.45,3.92s3.22,2.21,5,3.41l-2.06,3.86a40.16,40.16,0,0,1-10.23-7.77A41.51,41.51,0,0,1,195.42,163.5Zm-47.23-55.64c-8.89,12-8.2,29.55,0,40.25A35,35,0,0,0,148.19,107.86Zm58.05,0c-8.63,11.61-8.48,28.93,0,40.26C214.44,137.07,215,120,206.24,107.86Z"/><path class="cls-1" d="M177.2,44.5a20,20,0,1,1-19.93,20.12A20,20,0,0,1,177.2,44.5Zm15.45,19.94a15.44,15.44,0,1,0-15.38,15.42A15.48,15.48,0,0,0,192.65,64.44Z"/><path class="cls-1" d="M139.07,64.5a19.93,19.93,0,1,1-19.9-20A19.92,19.92,0,0,1,139.07,64.5Zm-20,15.36a15.43,15.43,0,1,0,0-30.87c-8.31-.09-15.17,6.94-15.38,15.09C103.51,72.58,110.63,80,119.08,79.86Z"/><path class="cls-1" d="M235.35,44.5a20,20,0,0,1,19.86,20.57c-.21,10.87-9.49,19.58-20.61,19.35a20,20,0,0,1,.75-39.92Zm15.3,20a15.43,15.43,0,1,0-15.51,15.38A15.53,15.53,0,0,0,250.65,64.5Z"/></svg>