<svg id="Layer_1" data-name="Layer 1" xmlns="http://www.w3.org/2000/svg" viewBox="0 0 354.33 208"><defs><style>.cls-1{fill:#d11f25;}</style></defs><title>Building trust_Icon</title><path class="cls-1" d="M168.51,136.71,164.14,138a40.7,40.7,0,1,1,26.41,26.8l1.38-4.37c10.2,3,20,2.13,29.15-3.19a35.25,35.25,0,0,0,14.86-16.6,36,36,0,0,0-51.23-45.53C172.41,102.34,163.3,118.17,168.51,136.71Z"/><path class="cls-1" d="M163.81,87.51l-1.4,4.34a35.61,35.61,0,0,0-28.11,2.61,34.55,34.55,0,0,0-15.2,15.8c-6.95,14.51-3.87,31.41,7.54,42.05a36,36,0,0,0,59.22-36.7l4.29-1.33c4.37,12.21,2,32-14.32,44.41-15.69,11.88-38.29,10.61-52.39-2.9A40.68,40.68,0,0,1,117.91,103C129.63,86.1,149.75,82.52,163.81,87.51Z"/><path class="cls-1" d="M224.82,61.53a20.36,20.36,0,1,1-20.28-20.4A20.32,20.32,0,0,1,224.82,61.53Zm-20.29,15.6a15.64,15.64,0,1,0-15.71-15.68A15.56,15.56,0,0,0,204.54,77.14Z"/><path class="cls-1" d="M129.54,61.47a20.33,20.33,0,1,1,20.06,20.39A20.31,20.31,0,0,1,129.54,61.47Zm20.31,15.66a15.64,15.64,0,1,0-15.65-15.62A15.69,15.69,0,0,0,149.85,77.14Z"/></svg>