<svg xmlns="http://www.w3.org/2000/svg" viewBox="0 0 291.21 279.32"><defs><style>.cls-1{fill:#d32329;}.cls-2{fill:#08afe9;}.cls-3{fill:#50256c;}</style></defs><title>Asset 1</title><g id="Layer_2" data-name="Layer 2"><g id="Layer_1-2" data-name="Layer 1"><path class="cls-1" d="M191.7,88.42c3,0,5.9-.2,8.9,0a47.09,47.09,0,0,1,21.3,86.7,14.31,14.31,0,0,0-1.5,1.1l-4.8,2.4c-.8.3-1.7.5-2.5.8a46.65,46.65,0,0,1-48.2-9.4,17.88,17.88,0,0,1-1.3-1.4c1.3-1.3,2.3-2.7,3.8-3.6.2.2.4.3.5.4,9.4,8.7,20.4,12.5,33.1,11.3a32.9,32.9,0,0,0,11.9-3.2l4.8-2.4c.8-.5,1.7-.9,2.5-1.4a41.68,41.68,0,0,0-27.5-75.9c-1.8.3-3.7.1-5.3,1.1a11.71,11.71,0,0,0-2.6.4c-15.1,4.9-24.7,15-28.7,30.4-.2.7-.4,1.5-.7,2.3q-2.55-.45-4.8-.9c-.1-.3-.2-.4-.2-.6a7.58,7.58,0,0,1,.3-1.6q6.9-27,33.5-35.1a14.27,14.27,0,0,0,2.2-.8C188.2,88.92,190,88.62,191.7,88.42Z"/><path class="cls-1" d="M145.6,230.42a47.12,47.12,0,0,1-77.3-24.8,46.29,46.29,0,0,1,2.3-28c.2-.5.4-1.1.6-1.6.8-1.6,1.6-3.2,2.5-4.8a8.65,8.65,0,0,0,.7-1c8.8-13.4,21.2-20.8,37.3-22.1a37.89,37.89,0,0,1,10,.6c-.5,1.8-.3,3.5-1.1,5.1-1.1-.1-2.2-.1-3.2-.2a40.77,40.77,0,0,0-22,4.4,40.11,40.11,0,0,0-16.7,15.7l-2.4,4.8c-.2.4-.5.8-.7,1.3a41.61,41.61,0,0,0,39.6,57c10-.4,18.9-3.6,26.4-10.2C142.9,227.92,144.3,229.12,145.6,230.42Z"/><path class="cls-2" d="M73.5,171.22c-.8,1.6-1.6,3.2-2.5,4.8a45.15,45.15,0,0,1-16.9-16.7,46.94,46.94,0,0,1,7.4-57.4c10.3-10.1,22.7-14.6,37.1-13.5h1l5.4.9,2.1.6q27.45,8.25,33.8,36.3c.1.5.1,1.1.2,1.7-1.8.3-3.4.6-5.1.8-.2-.6-.4-1.1-.5-1.5a39.94,39.94,0,0,0-4.4-12.1c-6.1-10.6-15-17.4-27-20.2L98.7,94a41.58,41.58,0,0,0-25.2,77.2Z"/><path class="cls-2" d="M145.6,230.42c-1.3-1.3-2.7-2.5-4-3.8l-1.5-2.4q-16.35-22.2-6.1-47.8a3.94,3.94,0,0,1,1.5-2.4c1.5.8,3,1.5,4.5,2.3-.3.7-.6,1.2-.8,1.7a41.08,41.08,0,0,0,.4,35.1,30.6,30.6,0,0,0,6.3,9.3c1.2,1.3,2.5,2.6,3.7,3.9.8.7,1.5,1.4,2.3,2.1a41.29,41.29,0,0,0,48.6,1.3c14.5-10.2,20.2-24.3,17.7-41.8a48.6,48.6,0,0,0-2.7-9.2l4.8-2.4c6.3,15.2,5.3,30.1-3.3,44.1a45.19,45.19,0,0,1-31.7,21.3c-14.5,2.5-27.6-1.2-38.9-10.6C146.2,230.72,145.9,230.62,145.6,230.42Z"/><path class="cls-3" d="M145.8,0c11.8-.4,23.4,9.7,23.4,23.5a23.55,23.55,0,1,1-47.1-.3C122.3,9.32,134.2-.48,145.8,0Zm-.1,41.6a18.12,18.12,0,0,0,18.1-18.2,18.37,18.37,0,0,0-18.3-18.1c-7.9.1-17.9,6.1-18,18.1A18.05,18.05,0,0,0,145.7,41.62Z"/><path class="cls-1" d="M70.1,279.22A23.5,23.5,0,1,1,93.8,256C93.6,269.22,82.6,279.62,70.1,279.22Zm0-5.4a17.91,17.91,0,0,0,18.2-18c0-11.5-9.7-18.1-17.9-18.2-8.6-.1-18.2,6.8-18.3,18S61.6,274.22,70.1,273.82Z"/><path class="cls-1" d="M291.2,112.22c.4,11.9-9.7,23.5-23.4,23.6a23.55,23.55,0,1,1,0-47.1C281.6,88.72,291.6,100.32,291.2,112.22Zm-5.3,0a18.1,18.1,0,0,0-36.2-.2c-.2,10.2,8.4,18.2,18,18.3A18.3,18.3,0,0,0,285.9,112.22Z"/><path class="cls-2" d="M220.9,279.32a23.3,23.3,0,0,1-23.3-23.6,23.55,23.55,0,1,1,23.3,23.6Zm.4-41.6c-8.8-.5-18.2,7-18.3,18,0,11.2,9.5,18.1,17.8,18.3a18.38,18.38,0,0,0,18.4-17.9C239.4,245.52,230.5,237.42,221.3,237.72Z"/><path class="cls-2" d="M23.7,88.62A23.6,23.6,0,1,1,0,112,23.6,23.6,0,0,1,23.7,88.62Zm-.1,5.5a18.1,18.1,0,0,0-18.1,18.1,18.28,18.28,0,0,0,18.1,18.1c8.7,0,18.1-7.2,18.1-18.2A18.07,18.07,0,0,0,23.6,94.12Z"/><path class="cls-3" d="M105,89.32l-5.4-.9c3.3-14.3,11.4-25,24.4-31.9,26.5-13.9,59.4.6,67.1,29.5.2.8.4,1.6.5,2.3-1.8.2-3.5.5-5.3.7a12.09,12.09,0,0,1-.5-1.8,41.62,41.62,0,0,0-80.8,2.1Z"/><path class="cls-2" d="M212.9,173.62a41.7,41.7,0,0,0-15-14.5,40.22,40.22,0,0,0-23-5.4c-1.1.1-2.2.1-3.5.2-.3-1.7-.5-3.3-.8-5.2a44.38,44.38,0,0,1,22.9,2.4,46,46,0,0,1,24.2,20.1Z"/><path class="cls-3" d="M192.6,93.92a50.38,50.38,0,0,1-1.9,18.5,46.76,46.76,0,0,1-22.5,27.4,4.87,4.87,0,0,1-.7.3c-.9-.4-1-1.3-1.5-2.1a26.78,26.78,0,0,1-1.2-2.4,8.46,8.46,0,0,1,1.5-.9c11.1-6.5,17.9-16.1,20.5-28.7a44.91,44.91,0,0,0,.6-11C189,94,190.8,94.22,192.6,93.92Z"/><path class="cls-2" d="M78.6,173.82a44.6,44.6,0,0,0,14,3.2,41.36,41.36,0,0,0,28.3-9.1c.9-.7,1.8-1.5,2.9-2.4,1.2,1.2,2.3,2.4,3.5,3.6-8.9,10.2-30.1,18.7-51.1,9.6C76.9,177,77.8,175.42,78.6,173.82Z"/><path class="cls-3" d="M104.2,94.82c-1,17.9,6.6,31.1,21.8,40.5a42.33,42.33,0,0,1-2.5,4.6,19.61,19.61,0,0,1-2.1-1.2c-12.9-8.1-20.4-19.7-22.4-34.8a41.82,41.82,0,0,1-.1-10C100.6,94.22,102.4,94.52,104.2,94.82Z"/><path class="cls-1" d="M145.8,222.42a43.44,43.44,0,0,0,8.4-15.7,41.21,41.21,0,0,0-1.7-27.9c-.2-.6-.5-1.2-.7-1.8.3-.2.5-.5.8-.6,1.2-.6,2.4-1.2,3.7-1.7,7.4,12.6,7.8,35.2-6.7,51.6C148.3,225,147.1,223.72,145.8,222.42Z"/></g></g></svg>