<svg id="Layer_1" data-name="Layer 1" xmlns="http://www.w3.org/2000/svg" viewBox="0 0 354.33 208"><defs><style>.cls-1{fill:#4c2169;}</style></defs><title>Realizing possibilities_Icon</title><path class="cls-1" d="M170.69,122.53c.77,1.79,1.55,3.48,2.2,5.22a1.9,1.9,0,0,1-.3,1.4,49.23,49.23,0,0,1-19.87,18.59,49.74,49.74,0,0,1-21.62,5.53C107.28,154,86,137.89,81,114.48c-3.56-16.57.66-31.31,12-43.82a47.89,47.89,0,0,1,30.87-15.58,49.7,49.7,0,0,1,54.75,39.58c.78,4,.77,8.17,1.06,12.27a43.35,43.35,0,0,0,11.77,27.15,44,44,0,0,0,26.38,14,44.54,44.54,0,1,0-33.93-63c-.07.14-.16.27-.25.43-.77-1.79-1.56-3.53-2.24-5.32a1.8,1.8,0,0,1,.35-1.27A49.27,49.27,0,0,1,204.37,59a50.11,50.11,0,0,1,65,23.08,49.06,49.06,0,0,1-20.94,65.31A50.58,50.58,0,0,1,226,153.27a49.91,49.91,0,0,1-48.85-34.08,48.37,48.37,0,0,1-2.42-15A45.11,45.11,0,0,0,86.53,91.35c-6,19.65,2.81,41.36,21,51.42A45.33,45.33,0,0,0,170,123.87C170.26,123.45,170.46,123,170.69,122.53Z"/></svg>